<svg width="41" height="40" viewBox="0 0 41 40" fill="none" xmlns="http://www.w3.org/2000/svg">
<path d="M14.5127 8.92308C16.1508 8.92308 17.3737 9.4 18.1889 10.3538C19.0041 11.3077 19.4117 12.6385 19.4117 14.3615V14.7615H17.143V14.2C17.143 13.2077 16.9276 12.4385 16.5046 11.9C16.0816 11.3615 15.4356 11.0923 14.5665 11.0923C13.659 11.0923 12.9899 11.3846 12.5669 11.9615C12.1439 12.5385 11.9286 13.4231 11.9286 14.6V19.4769C12.5515 17.9231 13.7205 17.1462 15.4356 17.1462C16.8046 17.1462 17.8197 17.6 18.4812 18.5154C19.1426 19.4231 19.4733 20.6923 19.4733 22.3V25.5923C19.4733 27.2923 19.0503 28.6308 18.1966 29.6154C17.3506 30.6 16.1201 31.0923 14.505 31.0923C12.8669 31.0923 11.6286 30.6 10.7826 29.6154C9.93665 28.6308 9.50596 27.2923 9.50596 25.5923V14.5077C9.50596 12.7308 9.92127 11.3538 10.7519 10.3769C11.5825 9.4 12.8284 8.91539 14.505 8.91539L14.5127 8.92308ZM0.515382 14.7692C0.515382 13.6538 1.23063 12.7 2.22275 12.3462C2.2612 9.7 2.49962 7.23846 3.66862 5.31538C5.01452 3.10769 7.49865 1.70769 12.0824 1.70769H12.8669C13.2206 0.715385 14.1743 0 15.2818 0C16.6969 0 17.8505 1.14615 17.8505 2.56923C17.8505 3.98462 16.7046 5.13846 15.2818 5.13846C14.1666 5.13846 13.2206 4.43077 12.8669 3.43846H12.0824C8.20621 3.43846 6.17583 4.51539 5.13757 6.21539C4.17622 7.79231 3.96856 9.96923 3.9378 12.3462C4.92992 12.7 5.63747 13.6462 5.63747 14.7615C5.63747 16.1769 4.49154 17.3308 3.06874 17.3308C1.65362 17.3308 0.5 16.1846 0.5 14.7615L0.515382 14.7692ZM0.515382 25.2385C0.515382 23.8231 1.66131 22.6692 3.08412 22.6692C4.49923 22.6692 5.65285 23.8154 5.65285 25.2385C5.65285 26.3538 4.9453 27.3 3.95318 27.6538C3.98395 30.0308 4.18391 32.2154 5.14526 33.7923C6.18352 35.4923 8.2139 36.5692 12.0901 36.5692H12.8745C13.2283 35.5769 14.182 34.8615 15.2895 34.8615C16.7046 34.8615 17.8582 36.0077 17.8582 37.4308C17.8582 38.8462 16.7123 40 15.2895 40C14.1743 40 13.2283 39.2923 12.8745 38.3H12.0901C7.49865 38.3 5.02221 36.9 3.67631 34.6923C2.49962 32.7692 2.2612 30.3077 2.23044 27.6615C1.23063 27.3077 0.515382 26.3615 0.515382 25.2385ZM35.3625 14.7692C35.3625 13.6538 36.0701 12.7077 37.0622 12.3538C37.0314 9.97692 36.8315 7.79231 35.8701 6.21539C34.8319 4.51539 32.8015 3.43846 28.9253 3.43846H28.1793C27.8255 4.43077 26.8795 5.13846 25.7644 5.13846C24.3493 5.13846 23.1956 3.99231 23.1956 2.56923C23.1956 1.15385 24.3416 0 25.7644 0C26.8795 0 27.8255 0.715385 28.1793 1.70769H28.9253C33.5167 1.70769 35.9932 3.10769 37.3391 5.31538C38.5158 7.23846 38.7542 9.69231 38.7849 12.3385C39.7848 12.6923 40.5 13.6462 40.5 14.7615C40.5 16.1769 39.3541 17.3308 37.9313 17.3308C36.5162 17.3308 35.3625 16.1846 35.3625 14.7615V14.7692ZM35.3625 25.2385C35.3625 23.8231 36.5085 22.6692 37.9313 22.6692C39.3464 22.6692 40.5 23.8154 40.5 25.2385C40.5 26.3538 39.7848 27.3077 38.7926 27.6615C38.7542 30.3077 38.5158 32.7692 37.3468 34.6923C36.0009 36.9 33.5167 38.3 28.933 38.3H28.187C27.8332 39.2923 26.8872 40 25.7721 40C24.357 40 23.2033 38.8538 23.2033 37.4308C23.2033 36.0154 24.3493 34.8615 25.7721 34.8615C26.8872 34.8615 27.8332 35.5769 28.187 36.5692H28.933C32.8092 36.5692 34.8396 35.4923 35.8778 33.7923C36.8392 32.2154 37.0468 30.0385 37.0776 27.6538C36.0855 27.3 35.3779 26.3538 35.3779 25.2385H35.3625ZM14.5127 19.3462C13.6436 19.3462 12.9976 19.6231 12.5746 20.1692C12.1516 20.7154 11.9363 21.4923 11.9363 22.4846V25.7462C11.9363 26.7385 12.1516 27.5077 12.5746 28.0615C12.9976 28.6077 13.6436 28.8846 14.5127 28.8846C15.3587 28.8846 16.0047 28.6077 16.4354 28.0615C16.8738 27.5154 17.0891 26.7385 17.0891 25.7462V22.4846C17.0891 21.4923 16.8738 20.7231 16.4354 20.1692C15.997 19.6231 15.3587 19.3462 14.5127 19.3462ZM30.5634 30.8615H28.2024V26.4846H21.1883V24.2769L27.9255 9.12308H30.5634V24.2769H32.3016V26.4846H30.5634V30.8615ZM28.2024 24.2769V13.6615L23.4187 24.2769H28.2024Z" fill="white"/>
</svg>
