<svg width="60" height="60" viewBox="0 0 60 60" fill="none" xmlns="http://www.w3.org/2000/svg">
<rect x="0.5" y="0.5" width="59" height="59" rx="29.5" stroke="#56CCF2"/>
<path fill-rule="evenodd" clip-rule="evenodd" d="M23.7189 19.1424C23.469 19.3372 23.3915 19.6697 23.391 20.5496L23.3906 21.2984H22.2251H21.0595L20.854 21.5019L20.6484 21.7055V26.0638V30.4221H19.875H19.1016V29.5097V28.5974L18.8625 28.3606L18.6234 28.1238H16.7461H14.8687L14.6297 28.3606L14.3906 28.5974V29.5097V30.4221H13.4719C12.5219 30.4221 12.3397 30.4632 12.1246 30.7263C12.0122 30.8637 12.003 31.2332 12.0015 35.6968L12 40.5187L12.2052 40.7462L12.4103 40.9736H25.043H37.6756L37.8808 40.7462C38.1742 40.4209 38.1627 40.0955 37.8469 39.7827L37.6078 39.5459H34.1555H30.7031V35.6805V31.8151H38.6484H46.5938V35.6768V39.5386L44.982 39.5597C43.3895 39.5804 43.3683 39.5827 43.1902 39.7486C42.951 39.9713 42.8924 40.3021 43.0414 40.5876C43.2518 40.9906 43.4196 41.017 45.6204 40.9941L47.5899 40.9736L47.7949 40.7462L48 40.5187L47.9985 35.6968C47.997 31.2332 47.9878 30.8637 47.8754 30.7263C47.6603 30.4632 47.4781 30.4221 46.5281 30.4221H45.6094V29.5097V28.5974L45.3703 28.3606L45.1313 28.1238H43.2539H41.3766L41.1375 28.3606L40.8984 28.5974V29.5097V30.4221H40.125H39.3516V26.0638V21.7055L39.146 21.5019L38.9405 21.2984H37.7749H36.6094L36.609 20.5496C36.6085 19.6697 36.531 19.3372 36.2811 19.1424C36.1072 19.007 36.0057 19 34.2188 19C32.4318 19 32.3303 19.007 32.1564 19.1424C31.9065 19.3372 31.829 19.6697 31.8285 20.5496L31.8281 21.2984H30H28.1719L28.1715 20.5496C28.171 19.6697 28.0935 19.3372 27.8436 19.1424C27.6697 19.007 27.5682 19 25.7812 19C23.9943 19 23.8928 19.007 23.7189 19.1424ZM26.6953 20.8456V21.2984H25.7812H24.8672V20.8456V20.3929H25.7812H26.6953V20.8456ZM35.1328 20.8456V21.2984H34.2188H33.3047V20.8456V20.3929H34.2188H35.1328V20.8456ZM37.9453 26.5567V30.4221H30H22.0547V26.5567V22.6913H30H37.9453V26.5567ZM17.625 29.9694V30.4221H16.7461H15.8672V29.9694V29.5167H16.7461H17.625V29.9694ZM44.1328 29.9694V30.4221H43.2539H42.375V29.9694V29.5167H43.2539H44.1328V29.9694ZM29.2969 35.6805V39.5459H21.3516H13.4062V35.6805V31.8151H21.3516H29.2969V35.6805ZM40.2534 39.6651C39.8639 39.9045 39.8023 40.3948 40.1178 40.7446C40.2864 40.9315 40.3725 40.9705 40.6172 40.9705C40.8619 40.9705 40.9479 40.9315 41.1165 40.7446C41.4085 40.421 41.3965 40.0949 41.0813 39.7827C40.8114 39.5154 40.5561 39.4791 40.2534 39.6651Z" fill="#56CCF2"/>
</svg>
