<svg width="60" height="60" viewBox="0 0 60 60" fill="none" xmlns="http://www.w3.org/2000/svg">
<rect x="0.5" y="0.5" width="59" height="59" rx="29.5" stroke="#56CCF2"/>
<path d="M38.2018 20.3798L36.1842 14.6693C36.0965 14.4935 36.0088 14.3178 35.8333 14.1421C35.6579 13.9664 35.307 13.8786 34.693 13.8786C31.5351 13.8786 28.3772 13.8786 25.2193 13.8786C24.6053 13.8786 24.2544 13.9664 24.0789 14.1421C23.9035 14.3178 23.8158 14.4935 23.7281 14.6693L21.7105 20.292C23.9035 18.3592 26.7982 17.2171 29.8684 17.2171C32.9386 17.2171 36.0588 18.4911 38.2018 20.3798ZM35.2193 31.3618C35.4825 31.3618 35.7456 31.6253 35.7456 31.8889C35.7456 32.1525 35.4825 32.416 35.2193 32.416C31.7105 32.416 28.2018 32.416 24.693 32.416C24.4298 32.416 24.1667 32.1525 24.1667 31.8889C24.1667 31.6253 24.4298 31.3618 24.693 31.3618C28.2018 31.3618 31.7105 31.3618 35.2193 31.3618ZM31.5351 29.3411C31.5351 29.6047 31.2719 29.8682 31.0088 29.8682C30.7456 29.8682 30.4825 29.6047 30.4825 29.3411V28.1111C30.4825 27.8475 30.7456 27.584 31.0088 27.584C31.2719 27.584 31.5351 27.8475 31.5351 28.1111V29.3411ZM33.6404 29.3411C33.6404 29.6047 33.3772 29.8682 33.114 29.8682C32.8509 29.8682 32.5877 29.6047 32.5877 29.3411V28.1111C32.5877 27.8475 32.8509 27.584 33.114 27.584C33.3772 27.584 33.6404 27.8475 33.6404 28.1111V29.3411ZM35.7456 29.3411C35.7456 29.6047 35.4825 29.8682 35.2193 29.8682C34.9561 29.8682 34.693 29.6047 34.693 29.3411V28.1111C34.693 27.8475 34.9561 27.584 35.2193 27.584C35.4825 27.584 35.7456 27.8475 35.7456 28.1111V29.3411ZM37.0614 34.0853C37.1491 34.0853 37.2368 34.0853 37.2368 33.9974C37.3246 33.9096 37.3246 33.9096 37.3246 33.8217V26.0904C37.3246 26.0026 37.3246 25.9147 37.2368 25.9147C37.1491 25.8269 37.1491 25.8269 37.0614 25.8269C32.3246 25.8269 27.6754 25.8269 22.9386 25.8269C22.8509 25.8269 22.7632 25.8269 22.7632 25.9147C22.6754 26.0026 22.6754 26.0026 22.6754 26.0904V33.8217C22.6754 33.9096 22.6754 33.9974 22.7632 33.9974C22.8509 34.0853 22.8509 34.0853 22.9386 34.0853C27.6754 34.0853 32.3246 34.0853 37.0614 34.0853ZM37.0614 24.7726C37.4123 24.7726 37.7632 24.9483 38.0263 25.124C38.2895 25.3876 38.3772 25.6512 38.3772 26.0904V33.8217C38.3772 34.1731 38.2018 34.5245 38.0263 34.7881C37.7632 35.0517 37.5 35.1395 37.0614 35.1395C32.3246 35.1395 27.6754 35.1395 22.9386 35.1395C22.5877 35.1395 22.2368 34.9638 21.9737 34.7881C21.7105 34.5245 21.6228 34.261 21.6228 33.8217V26.0904C21.6228 25.739 21.7982 25.3876 21.9737 25.124C22.2368 24.8605 22.5 24.7726 22.9386 24.7726C27.6754 24.7726 32.3246 24.7726 37.0614 24.7726ZM39.9561 37.5995L37.1491 45.5065C37.0614 45.8579 36.886 46.2093 36.5351 46.4729C36.1842 46.7364 35.6579 47 34.7807 47C31.6228 47 28.4649 47 25.307 47C24.4298 47 23.9035 46.8243 23.5526 46.4729C23.2018 46.1214 23.0263 45.77 22.9386 45.5065L20.1316 37.7752C18.4649 35.6667 17.5 32.9432 17.5 30.0439C17.5 27.1447 18.4649 24.4212 20.1316 22.3127L22.9386 14.4935C23.0263 14.1421 23.2018 13.7907 23.5526 13.5271C23.9035 13.2636 24.4298 13 25.307 13C28.4649 13 31.6228 13 34.7807 13C35.6579 13 36.1842 13.1757 36.5351 13.5271C36.886 13.8786 37.0614 14.23 37.1491 14.4935L39.9561 22.4005C41.5351 24.509 42.5 27.1447 42.5 30.0439C42.5 32.9432 41.5351 35.5788 39.9561 37.6873V37.5995ZM34.693 45.9457C35.307 45.9457 35.6579 45.8579 35.8333 45.6822C36.0088 45.5065 36.0965 45.3307 36.1842 45.155L38.2018 39.5323C36.0088 41.4651 33.114 42.6072 29.9561 42.6072C26.7982 42.6072 23.9912 41.4651 21.7982 39.5323L23.8158 45.155C23.9035 45.3307 23.9912 45.5065 24.1667 45.6822C24.3421 45.8579 24.693 45.9457 25.307 45.9457C28.4649 45.9457 31.6228 45.9457 34.7807 45.9457H34.693ZM29.4298 29.3411C29.4298 29.6047 29.1667 29.8682 28.9035 29.8682C28.6404 29.8682 28.3772 29.6047 28.3772 29.3411V28.1111C28.3772 27.8475 28.6404 27.584 28.9035 27.584C29.1667 27.584 29.4298 27.8475 29.4298 28.1111V29.3411ZM27.3246 29.3411C27.3246 29.6047 27.0614 29.8682 26.7982 29.8682C26.5351 29.8682 26.2719 29.6047 26.2719 29.3411V28.1111C26.2719 27.8475 26.5351 27.584 26.7982 27.584C27.0614 27.584 27.3246 27.8475 27.3246 28.1111V29.3411ZM25.2193 29.3411C25.2193 29.6047 24.9561 29.8682 24.693 29.8682C24.4298 29.8682 24.1667 29.6047 24.1667 29.3411V28.1111C24.1667 27.8475 24.4298 27.584 24.693 27.584C24.9561 27.584 25.2193 27.8475 25.2193 28.1111V29.3411ZM20.8333 37.0724L20.9211 37.1602C21.1842 37.5116 21.4474 37.863 21.7982 38.1266C23.9035 40.2351 26.7982 41.553 29.9561 41.553C33.114 41.553 36.0088 40.2351 38.114 38.1266C40.2193 36.0181 41.5351 33.1189 41.5351 29.9561C41.5351 26.7933 40.2193 23.8941 38.114 21.7855C36.0088 19.677 33.114 18.3592 29.9561 18.3592C26.7982 18.3592 23.9035 19.677 21.7982 21.7855C19.693 23.8941 18.3772 26.7933 18.3772 29.9561C18.3772 32.6796 19.2544 35.1395 20.8333 37.0724Z" fill="#56CCF2"/>
</svg>
