<svg width="60" height="60" viewBox="0 0 60 60" fill="none" xmlns="http://www.w3.org/2000/svg">
<rect x="0.5" y="0.5" width="59" height="59" rx="29.5" stroke="#56CCF2"/>
<path d="M29.6878 45.9405C23.0197 42.2239 19.4495 39.1614 17.7677 35.088C16.0859 31.0444 16.2925 26.1087 17.1481 18.5268C17.1776 18.17 17.4727 17.9024 17.8267 17.9024C21.9575 17.9024 29.6878 14.0669 29.7173 14.0669C29.9239 13.9777 30.1304 13.9777 30.3074 14.0669C30.3369 14.0669 38.0673 17.9024 42.198 17.9024C42.5816 17.9024 42.8766 18.1998 42.8766 18.5565C43.7028 26.079 43.9093 31.0146 42.2275 35.0583C40.5457 39.1317 36.9756 42.1645 30.3074 45.9108C30.1009 46.0297 29.8354 46.0297 29.6288 45.9108L29.6878 45.9405ZM23.1672 33.5122H36.8871V32.2634H23.1672V33.5122ZM36.8871 34.9096H23.1672V35.6232C23.1672 35.8314 23.0197 35.98 22.8131 35.98H19.7446C21.4854 39.0128 24.6719 41.5401 30.0124 44.5431C35.3528 41.5401 38.5394 39.0128 40.2802 35.98H37.2117C37.0346 35.98 36.8576 35.8314 36.8576 35.6232V34.9096H36.8871ZM23.1672 30.866H36.8871V29.6172H23.1672V30.866ZM23.1672 28.2197H36.8871V26.971H23.1672V28.2197ZM23.1672 25.5735H36.8871V24.3247H23.1672V25.5735ZM23.1672 22.9273H36.8871V22.2732C36.8871 22.065 37.0346 21.9164 37.2412 21.9164H41.8735C41.785 21.0839 41.6964 20.1919 41.6079 19.2702C37.5952 18.9728 31.4581 16.1184 30.0419 15.4643C28.6256 16.1482 22.4591 19.0026 18.4759 19.2702C18.3873 20.1919 18.2988 21.0839 18.2103 21.9164H22.8426C23.0492 21.9164 23.1967 22.065 23.1967 22.2732V22.9273H23.1672Z" fill="#56CCF2"/>
</svg>
