<svg width="60" height="60" viewBox="0 0 60 60" fill="none" xmlns="http://www.w3.org/2000/svg">
<rect x="0.5" y="0.5" width="59" height="59" rx="29.5" stroke="#56CCF2"/>
<path d="M19.2 39.0036C19.2 40.3034 19.5692 40.9533 20.0308 41.2318C20.5846 41.6032 21.4154 41.6032 22.3385 41.6032H27.0462C27.9692 41.6032 28.8 41.6032 29.3538 41.2318C29.9077 40.9533 30.1846 40.3034 30.1846 39.0036V24.056C30.1846 22.7562 29.8154 22.1063 29.3538 21.8278C28.8 21.4564 27.9692 21.4564 27.0462 21.4564H22.3385C21.4154 21.4564 20.5846 21.4564 20.0308 21.8278C19.4769 22.1063 19.2 22.7562 19.2 24.056V39.0036ZM39.1622 19.2282C39.1622 19.5996 38.7879 19.7853 38.511 19.7853C38.1418 19.7853 37.9385 19.5067 37.9385 19.2282C37.9385 18.6712 37.8462 18.4855 37.6615 18.3926C37.4769 18.2998 37.1077 18.2069 36.6462 18.2069H34.2462C33.8769 18.2069 33.4154 18.2069 33.2308 18.3926C33.0462 18.4855 32.9538 18.764 32.9538 19.2282C32.9538 19.5996 32.6769 19.7853 32.4 19.7853C32.0308 19.7853 31.8462 19.5067 31.8462 19.2282C31.8462 18.2069 32.2154 17.6499 32.6769 17.3714C33.1385 17.0928 33.6923 17 34.3385 17H36.7385C37.2923 17 37.9385 17 38.4 17.3714C38.9538 17.6499 39.1622 18.2069 39.1622 19.2282ZM28.4183 19.2282C28.4183 19.5996 28.0441 19.7853 27.7672 19.7853C27.3979 19.7853 27.2308 19.5067 27.2308 19.2282C27.2308 18.6712 27.1385 18.4855 26.9538 18.3926C26.7692 18.2998 26.4 18.2069 25.9385 18.2069H23.5385C23.1692 18.2069 22.7077 18.2069 22.5231 18.3926C22.3385 18.4855 22.2462 18.764 22.2462 19.2282C22.2462 19.5996 21.9692 19.7853 21.6923 19.7853C21.3231 19.7853 21.1385 19.5067 21.1385 19.2282C21.1385 18.2069 21.5077 17.6499 21.9692 17.3714C22.4308 17.0928 22.9846 17 23.6308 17H26.0308C26.5846 17 27.2308 17 27.6923 17.3714C28.2462 17.6499 28.4183 18.2069 28.4183 19.2282ZM33.8769 38.8179C33.5077 38.8179 33.3231 38.5394 33.3231 38.2609C33.3231 37.8895 33.6 37.7038 33.8769 37.7038H37.5692C37.9385 37.7038 38.1231 37.9823 38.1231 38.2609C38.1231 38.6322 37.8462 38.8179 37.5692 38.8179H33.8769ZM35.1692 23.2204C35.1692 22.8491 35.4462 22.6634 35.7231 22.6634C36.0923 22.6634 36.2769 22.9419 36.2769 23.2204V24.5202H37.5692C37.9385 24.5202 38.1231 24.7987 38.1231 25.0773C38.1231 25.4486 37.8462 25.6343 37.5692 25.6343H36.2769V26.9341C36.2769 27.3055 36 27.4912 35.7231 27.4912C35.3538 27.4912 35.1692 27.2126 35.1692 26.9341V25.6343H33.8769C33.5077 25.6343 33.3231 25.3558 33.3231 25.0773C33.3231 24.7059 33.6 24.5202 33.8769 24.5202H35.1692V23.2204ZM28.0615 28.3268C28.1538 28.6053 27.9692 28.8838 27.6923 28.9766L25.5692 29.6265C25.2923 29.7194 24.9231 29.5337 24.8308 29.2552C24.7385 28.9767 24.9231 28.6053 25.2 28.5124L26.1231 28.2339H26.0308C25.6615 28.0482 25.2 28.0482 24.8308 28.0482C23.9077 28.0482 22.9846 28.4196 22.3385 29.0695C21.6923 29.7194 21.3231 30.555 21.3231 31.5762C21.3231 31.7619 21.3231 32.0404 21.4154 32.2261C21.4154 32.4118 21.5077 32.6903 21.6 32.876C21.6923 33.1546 21.6 33.5259 21.2308 33.6188C20.9538 33.7116 20.5846 33.6188 20.4923 33.2474C20.4 32.9689 20.3077 32.6903 20.2154 32.4118C20.1231 32.1333 20.1231 31.8548 20.1231 31.5762C20.1231 30.2764 20.6769 29.0695 21.5077 28.2339C22.3385 27.3983 23.5385 26.8413 24.8308 26.8413C25.3846 26.8413 25.9385 26.9341 26.4923 27.1198L26.6769 27.2126L26.5846 26.4699C26.4923 26.1914 26.7692 25.82 27.0462 25.82C27.3231 25.7272 27.6923 26.0057 27.6923 26.2842L28.0615 28.3268ZM21.4154 34.7329C21.3231 34.4543 21.5077 34.1758 21.7846 34.083L23.9077 33.4331C24.1846 33.3402 24.5538 33.5259 24.6462 33.8044C24.7385 34.083 24.5538 34.4543 24.2769 34.5472L23.3538 34.8257H23.4462C23.8154 35.0114 24.2769 35.0114 24.6462 35.0114C25.5692 35.0114 26.4923 34.64 27.1385 33.9901C27.7846 33.3402 28.1538 32.5047 28.1538 31.4834C28.1538 31.2977 28.1538 31.0192 28.0615 30.8335C28.0615 30.6478 27.9692 30.3693 27.8769 30.1836C27.7846 29.9051 27.8769 29.5337 28.2462 29.4409C28.5231 29.348 28.8923 29.4409 28.9846 29.8122C29.0769 30.0908 29.1692 30.3693 29.2615 30.6478C29.3538 30.9263 29.3538 31.2049 29.3538 31.4834C29.3538 32.7832 28.8 33.9901 27.9692 34.8257C27.1385 35.6613 25.9385 36.2183 24.6462 36.2183C24.0923 36.2183 23.5385 36.1255 22.9846 35.9398L22.8 35.847L22.8923 36.5897C22.9846 36.8682 22.7077 37.2396 22.4308 37.2396C22.1538 37.3325 21.7846 37.0539 21.7846 36.7754L21.4154 34.7329ZM32.9538 43C32.5846 43 32.4 42.6244 32.4 42.3459C32.4 41.9745 32.6769 41.696 32.9538 41.696H37.6615C38.5846 41.696 39.4154 41.696 39.9692 41.3247C40.5231 41.0461 40.8 40.3962 40.8 39.0965V24.1489C40.8 22.8491 40.4308 22.1992 39.9692 21.9206C39.4154 21.5493 38.5846 21.5493 37.6615 21.5493H32.9538C32.5846 21.5493 32.4 21.2707 32.4 20.9922C32.4 20.6208 32.6769 20.4352 32.9538 20.4352H37.6615C38.7692 20.4352 39.7846 20.528 40.6154 20.9922C41.4462 21.5493 42 22.4777 42 24.2417V39.1893C42 40.9533 41.4462 41.8817 40.6154 42.4388C39.7846 42.903 38.7692 42.9958 37.6615 42.9958H32.9538V43ZM19.3846 42.2531C18.5538 41.696 18 40.7676 18 39.0036V24.056C18 22.292 18.5538 21.3636 19.3846 20.8065C20.2154 20.3423 21.2308 20.2495 22.3385 20.2495H27.0462C28.1538 20.2495 29.1692 20.3423 30 20.8065C30.8308 21.3636 31.3846 22.292 31.3846 24.056V39.0036C31.3846 40.7676 30.8308 41.696 30 42.2531C29.1692 42.7173 28.1538 42.8101 27.0462 42.8101H22.3385C21.2308 42.8101 20.2154 42.7173 19.3846 42.2531Z" fill="#56CCF2"/>
</svg>
