<svg width="61" height="60" viewBox="0 0 61 60" fill="none" xmlns="http://www.w3.org/2000/svg">
<rect x="1" y="0.5" width="59" height="59" rx="29.5" stroke="#56CCF2"/>
<path d="M19.5072 30.5L16.7231 20.3182H17.9759L20.1038 28.6108H20.2032L22.3708 20.3182H23.7629L25.9305 28.6108H26.0299L28.1578 20.3182H29.4106L26.6265 30.5H25.3538L23.1066 22.3864H23.0271L20.7799 30.5H19.5072ZM30.7877 30.5V22.8636H31.961V30.5H30.7877ZM31.3843 21.5909C31.1556 21.5909 30.9584 21.513 30.7927 21.3572C30.6303 21.2015 30.5491 21.0142 30.5491 20.7955C30.5491 20.5767 30.6303 20.3894 30.7927 20.2337C30.9584 20.0779 31.1556 20 31.3843 20C31.613 20 31.8086 20.0779 31.971 20.2337C32.1367 20.3894 32.2195 20.5767 32.2195 20.7955C32.2195 21.0142 32.1367 21.2015 31.971 21.3572C31.8086 21.513 31.613 21.5909 31.3843 21.5909ZM34.2691 30.5V20.3182H40.3742V21.4119H35.502V24.8523H39.9168V25.946H35.502V30.5H34.2691ZM42.3268 30.5V22.8636H43.5001V30.5H42.3268ZM42.9234 21.5909C42.6947 21.5909 42.4975 21.513 42.3318 21.3572C42.1694 21.2015 42.0882 21.0142 42.0882 20.7955C42.0882 20.5767 42.1694 20.3894 42.3318 20.2337C42.4975 20.0779 42.6947 20 42.9234 20C43.1521 20 43.3476 20.0779 43.51 20.2337C43.6758 20.3894 43.7586 20.5767 43.7586 20.7955C43.7586 21.0142 43.6758 21.2015 43.51 21.3572C43.3476 21.513 43.1521 21.5909 42.9234 21.5909Z" fill="#56CCF2"/>
<path d="M13.2913 40.3182C13.2913 40.7784 13.2082 41.1761 13.042 41.5114C12.8758 41.8466 12.6478 42.1051 12.358 42.2869C12.0683 42.4688 11.7373 42.5597 11.3651 42.5597C10.993 42.5597 10.662 42.4688 10.3722 42.2869C10.0825 42.1051 9.85449 41.8466 9.6883 41.5114C9.52211 41.1761 9.43901 40.7784 9.43901 40.3182C9.43901 39.858 9.52211 39.4602 9.6883 39.125C9.85449 38.7898 10.0825 38.5312 10.3722 38.3494C10.662 38.1676 10.993 38.0767 11.3651 38.0767C11.7373 38.0767 12.0683 38.1676 12.358 38.3494C12.6478 38.5312 12.8758 38.7898 13.042 39.125C13.2082 39.4602 13.2913 39.858 13.2913 40.3182ZM12.7799 40.3182C12.7799 39.9403 12.7167 39.6214 12.5903 39.3615C12.4653 39.1016 12.2955 38.9048 12.0811 38.7713C11.868 38.6378 11.6294 38.571 11.3651 38.571C11.1009 38.571 10.8616 38.6378 10.6471 38.7713C10.434 38.9048 10.2643 39.1016 10.1379 39.3615C10.0129 39.6214 9.95037 39.9403 9.95037 40.3182C9.95037 40.696 10.0129 41.0149 10.1379 41.2749C10.2643 41.5348 10.434 41.7315 10.6471 41.8651C10.8616 41.9986 11.1009 42.0653 11.3651 42.0653C11.6294 42.0653 11.868 41.9986 12.0811 41.8651C12.2955 41.7315 12.4653 41.5348 12.5903 41.2749C12.7167 41.0149 12.7799 40.696 12.7799 40.3182ZM14.1116 42.5V39.2273H16.6855V42.5H16.1826V39.696H14.6144V42.5H14.1116ZM20.1776 39.2273V42.0312H20.6379V43.5568H20.135V42.5H17.6038V39.2273H18.1066V42.0312H19.6748V39.2273H20.1776ZM21.9152 41.7585L23.4919 39.2273H24.0715V42.5H23.5686V39.9688L22.0004 42.5H21.4124V39.2273H21.9152V41.7585ZM26.322 42.5682C26.0265 42.5682 25.7673 42.4979 25.5443 42.3572C25.3227 42.2166 25.1494 42.0199 25.0244 41.767C24.9008 41.5142 24.839 41.2187 24.839 40.8807C24.839 40.5398 24.9008 40.2422 25.0244 39.9879C25.1494 39.7337 25.3227 39.5362 25.5443 39.3956C25.7673 39.255 26.0265 39.1847 26.322 39.1847C26.6175 39.1847 26.876 39.255 27.0976 39.3956C27.3206 39.5362 27.4939 39.7337 27.6175 39.9879C27.7425 40.2422 27.805 40.5398 27.805 40.8807C27.805 41.2187 27.7425 41.5142 27.6175 41.767C27.4939 42.0199 27.3206 42.2166 27.0976 42.3572C26.876 42.4979 26.6175 42.5682 26.322 42.5682ZM26.322 42.1165C26.5464 42.1165 26.7311 42.0589 26.876 41.9439C27.0209 41.8288 27.1281 41.6776 27.1977 41.4901C27.2673 41.3026 27.3021 41.0994 27.3021 40.8807C27.3021 40.6619 27.2673 40.4581 27.1977 40.2692C27.1281 40.0803 27.0209 39.9276 26.876 39.8111C26.7311 39.6946 26.5464 39.6364 26.322 39.6364C26.0976 39.6364 25.9129 39.6946 25.768 39.8111C25.6231 39.9276 25.5159 40.0803 25.4463 40.2692C25.3767 40.4581 25.3419 40.6619 25.3419 40.8807C25.3419 41.0994 25.3767 41.3026 25.4463 41.4901C25.5159 41.6776 25.6231 41.8288 25.768 41.9439C25.9129 42.0589 26.0976 42.1165 26.322 42.1165ZM30.7629 40.6335V41.1023H28.9561V40.6335H30.7629ZM29.0754 39.2273V42.5H28.5725V39.2273H29.0754ZM31.1464 39.2273V42.5H30.6436V39.2273H31.1464ZM33.0278 42.5767C32.8204 42.5767 32.6322 42.5376 32.4632 42.4595C32.2941 42.38 32.1599 42.2656 32.0605 42.1165C31.961 41.9659 31.9113 41.7841 31.9113 41.571C31.9113 41.3835 31.9482 41.2315 32.0221 41.1151C32.096 40.9972 32.1947 40.9048 32.3183 40.8381C32.4419 40.7713 32.5782 40.7216 32.7274 40.6889C32.8779 40.6548 33.0292 40.6278 33.1812 40.608C33.3801 40.5824 33.5413 40.5632 33.6649 40.5504C33.7899 40.5362 33.8808 40.5128 33.9376 40.4801C33.9958 40.4474 34.0249 40.3906 34.0249 40.3097V40.2926C34.0249 40.0824 33.9674 39.919 33.8524 39.8026C33.7387 39.6861 33.5661 39.6278 33.3346 39.6278C33.0945 39.6278 32.9063 39.6804 32.77 39.7855C32.6336 39.8906 32.5377 40.0028 32.4823 40.1222L32.0051 39.9517C32.0903 39.7528 32.2039 39.598 32.346 39.4872C32.4894 39.375 32.6457 39.2969 32.8147 39.2528C32.9852 39.2074 33.1528 39.1847 33.3176 39.1847C33.4227 39.1847 33.5434 39.1974 33.6798 39.223C33.8176 39.2472 33.9504 39.2976 34.0782 39.3743C34.2075 39.451 34.3147 39.5668 34.3999 39.7216C34.4852 39.8764 34.5278 40.0838 34.5278 40.3438V42.5H34.0249V42.0568H33.9994C33.9653 42.1278 33.9085 42.2038 33.8289 42.2848C33.7494 42.3658 33.6436 42.4347 33.5115 42.4915C33.3794 42.5483 33.2181 42.5767 33.0278 42.5767ZM33.1045 42.125C33.3034 42.125 33.471 42.0859 33.6073 42.0078C33.7451 41.9297 33.8488 41.8288 33.9184 41.7053C33.9894 41.5817 34.0249 41.4517 34.0249 41.3153V40.8551C34.0036 40.8807 33.9568 40.9041 33.8843 40.9254C33.8133 40.9453 33.7309 40.9631 33.6372 40.9787C33.5448 40.9929 33.4546 41.0057 33.3666 41.017C33.2799 41.027 33.2096 41.0355 33.1556 41.0426C33.0249 41.0597 32.9028 41.0874 32.7892 41.1257C32.6769 41.1626 32.586 41.2187 32.5164 41.294C32.4482 41.3679 32.4142 41.4687 32.4142 41.5966C32.4142 41.7713 32.4788 41.9034 32.608 41.9929C32.7387 42.081 32.9042 42.125 33.1045 42.125ZM35.1558 42.5V42.0312H35.2751C35.3731 42.0312 35.4548 42.0121 35.5202 41.9737C35.5855 41.9339 35.6381 41.8651 35.6778 41.767C35.719 41.6676 35.7503 41.5298 35.7716 41.3537C35.7943 41.1761 35.8106 40.9503 35.8206 40.6761L35.8802 39.2273H38.0621V42.5H37.5592V39.696H36.3575L36.3064 40.8636C36.295 41.1321 36.2709 41.3686 36.2339 41.5732C36.1984 41.7763 36.1437 41.9467 36.0699 42.0845C35.9974 42.2223 35.9008 42.326 35.7801 42.3956C35.6594 42.4652 35.5081 42.5 35.3263 42.5H35.1558ZM39.4193 40.4119H40.3568C40.7403 40.4119 41.0336 40.5092 41.2368 40.7038C41.4399 40.8984 41.5415 41.1449 41.5415 41.4432C41.5415 41.6392 41.496 41.8175 41.4051 41.978C41.3142 42.1371 41.1807 42.2642 41.0045 42.3594C40.8284 42.4531 40.6125 42.5 40.3568 42.5H38.9846V39.2273H39.4875V42.0312H40.3568C40.5557 42.0312 40.719 41.9787 40.8469 41.8736C40.9747 41.7685 41.0386 41.6335 41.0386 41.4688C41.0386 41.2955 40.9747 41.1541 40.8469 41.0447C40.719 40.9354 40.5557 40.8807 40.3568 40.8807H39.4193V40.4119ZM44.4972 40.6335V41.1023H42.6904V40.6335H44.4972ZM42.8097 39.2273V42.5H42.3069V39.2273H42.8097ZM44.8808 39.2273V42.5H44.3779V39.2273H44.8808ZM47.1286 42.5682C46.8332 42.5682 46.574 42.4979 46.3509 42.3572C46.1294 42.2166 45.9561 42.0199 45.8311 41.767C45.7075 41.5142 45.6457 41.2187 45.6457 40.8807C45.6457 40.5398 45.7075 40.2422 45.8311 39.9879C45.9561 39.7337 46.1294 39.5362 46.3509 39.3956C46.574 39.255 46.8332 39.1847 47.1286 39.1847C47.4241 39.1847 47.6826 39.255 47.9042 39.3956C48.1272 39.5362 48.3005 39.7337 48.4241 39.9879C48.5491 40.2422 48.6116 40.5398 48.6116 40.8807C48.6116 41.2187 48.5491 41.5142 48.4241 41.767C48.3005 42.0199 48.1272 42.2166 47.9042 42.3572C47.6826 42.4979 47.4241 42.5682 47.1286 42.5682ZM47.1286 42.1165C47.3531 42.1165 47.5377 42.0589 47.6826 41.9439C47.8275 41.8288 47.9347 41.6776 48.0044 41.4901C48.074 41.3026 48.1088 41.0994 48.1088 40.8807C48.1088 40.6619 48.074 40.4581 48.0044 40.2692C47.9347 40.0803 47.8275 39.9276 47.6826 39.8111C47.5377 39.6946 47.3531 39.6364 47.1286 39.6364C46.9042 39.6364 46.7195 39.6946 46.5747 39.8111C46.4298 39.9276 46.3225 40.0803 46.2529 40.2692C46.1833 40.4581 46.1485 40.6619 46.1485 40.8807C46.1485 41.0994 46.1833 41.3026 46.2529 41.4901C46.3225 41.6776 46.4298 41.8288 46.5747 41.9439C46.7195 42.0589 46.9042 42.1165 47.1286 42.1165ZM50.2144 40.5909L50.2485 39.6534L49.4559 40.1562L49.2513 39.7983L50.0866 39.3636L49.2513 38.929L49.4559 38.571L50.2485 39.0739L50.2144 38.1364H50.6235L50.5894 39.0739L51.382 38.571L51.5866 38.929L50.7513 39.3636L51.5866 39.7983L51.382 40.1562L50.5894 39.6534L50.6235 40.5909H50.2144Z" fill="#56CCF2"/>
</svg>
