<svg width="60" height="60" viewBox="0 0 60 60" fill="none" xmlns="http://www.w3.org/2000/svg">
<rect x="0.5" y="0.5" width="59" height="59" rx="29.5" stroke="#56CCF2"/>
<path d="M25.5095 21.6923C26.7381 21.6923 27.6553 22.05 28.2667 22.7654C28.8781 23.4808 29.1838 24.4788 29.1838 25.7712V26.0712H27.4822V25.65C27.4822 24.9058 27.3207 24.3288 27.0035 23.925C26.6862 23.5212 26.2017 23.3192 25.5499 23.3192C24.8693 23.3192 24.3674 23.5385 24.0502 23.9712C23.7329 24.4038 23.5714 25.0673 23.5714 25.95V29.6077C24.0386 28.4423 24.9154 27.8596 26.2017 27.8596C27.2284 27.8596 27.9898 28.2 28.4859 28.8865C28.9819 29.5673 29.23 30.5192 29.23 31.725V34.1942C29.23 35.4692 28.9127 36.4731 28.2724 37.2115C27.638 37.95 26.7151 38.3192 25.5037 38.3192C24.2751 38.3192 23.3465 37.95 22.712 37.2115C22.0775 36.4731 21.7545 35.4692 21.7545 34.1942V25.8808C21.7545 24.5481 22.0659 23.5154 22.6889 22.7827C23.3119 22.05 24.2463 21.6865 25.5037 21.6865L25.5095 21.6923ZM15.0115 26.0769C15.0115 25.2404 15.548 24.525 16.2921 24.2596C16.3209 22.275 16.4997 20.4288 17.3765 18.9865C18.3859 17.3308 20.249 16.2808 23.6868 16.2808H24.2751C24.5405 15.5365 25.2557 15 26.0863 15C27.1477 15 28.0129 15.8596 28.0129 16.9269C28.0129 17.9885 27.1534 18.8538 26.0863 18.8538C25.25 18.8538 24.5405 18.3231 24.2751 17.5788H23.6868C20.7797 17.5788 19.2569 18.3865 18.4782 19.6615C17.7572 20.8442 17.6014 22.4769 17.5784 24.2596C18.3224 24.525 18.8531 25.2346 18.8531 26.0712C18.8531 27.1327 17.9937 27.9981 16.9266 27.9981C15.8652 27.9981 15 27.1385 15 26.0712L15.0115 26.0769ZM15.0115 33.9288C15.0115 32.8673 15.871 32.0019 16.9381 32.0019C17.9994 32.0019 18.8646 32.8615 18.8646 33.9288C18.8646 34.7654 18.334 35.475 17.5899 35.7404C17.613 37.5231 17.7629 39.1615 18.4839 40.3442C19.2626 41.6192 20.7854 42.4269 23.6926 42.4269H24.2809C24.5462 41.6827 25.2615 41.1462 26.0921 41.1462C27.1534 41.1462 28.0187 42.0058 28.0187 43.0731C28.0187 44.1346 27.1592 45 26.0921 45C25.2557 45 24.5462 44.4692 24.2809 43.725H23.6926C20.249 43.725 18.3917 42.675 17.3822 41.0192C16.4997 39.5769 16.3209 37.7308 16.2978 35.7462C15.548 35.4808 15.0115 34.7712 15.0115 33.9288ZM41.1469 26.0769C41.1469 25.2404 41.6776 24.5308 42.4216 24.2654C42.3986 22.4827 42.2486 20.8442 41.5276 19.6615C40.7489 18.3865 39.2261 17.5788 36.319 17.5788H35.7595C35.4941 18.3231 34.7847 18.8538 33.9483 18.8538C32.8869 18.8538 32.0217 17.9942 32.0217 16.9269C32.0217 15.8654 32.8812 15 33.9483 15C34.7847 15 35.4941 15.5365 35.7595 16.2808H36.319C39.7625 16.2808 41.6199 17.3308 42.6293 18.9865C43.5118 20.4288 43.6906 22.2692 43.7137 24.2538C44.4636 24.5192 45 25.2346 45 26.0712C45 27.1327 44.1406 27.9981 43.0734 27.9981C42.0121 27.9981 41.1469 27.1385 41.1469 26.0712V26.0769ZM41.1469 33.9288C41.1469 32.8673 42.0063 32.0019 43.0734 32.0019C44.1348 32.0019 45 32.8615 45 33.9288C45 34.7654 44.4636 35.4808 43.7195 35.7462C43.6906 37.7308 43.5118 39.5769 42.6351 41.0192C41.6256 42.675 39.7625 43.725 36.3247 43.725H35.7652C35.4999 44.4692 34.7904 45 33.954 45C32.8927 45 32.0275 44.1404 32.0275 43.0731C32.0275 42.0115 32.8869 41.1462 33.954 41.1462C34.7904 41.1462 35.4999 41.6827 35.7652 42.4269H36.3247C39.2319 42.4269 40.7547 41.6192 41.5334 40.3442C42.2544 39.1615 42.4101 37.5288 42.4332 35.7404C41.6891 35.475 41.1584 34.7654 41.1584 33.9288H41.1469ZM25.5095 29.5096C24.8577 29.5096 24.3732 29.7173 24.056 30.1269C23.7387 30.5365 23.5772 31.1192 23.5772 31.8635V34.3096C23.5772 35.0538 23.7387 35.6308 24.056 36.0462C24.3732 36.4558 24.8577 36.6635 25.5095 36.6635C26.144 36.6635 26.6285 36.4558 26.9515 36.0462C27.2803 35.6365 27.4418 35.0538 27.4418 34.3096V31.8635C27.4418 31.1192 27.2803 30.5423 26.9515 30.1269C26.6228 29.7173 26.144 29.5096 25.5095 29.5096ZM37.5476 38.1462H35.7768V34.8635H30.5162V33.2077L35.5691 21.8423H37.5476V33.2077H38.8512V34.8635H37.5476V38.1462ZM35.7768 33.2077V25.2462L32.189 33.2077H35.7768Z" fill="#56CCF2"/>
</svg>
