<svg width="61" height="60" viewBox="0 0 61 60" fill="none" xmlns="http://www.w3.org/2000/svg">
<rect x="1" y="0.5" width="59" height="59" rx="29.5" stroke="#56CCF2"/>
<path d="M23.9125 21.3501H25.389C25.8433 21.3501 26.2219 21.5436 26.5248 21.8146C26.8277 22.1243 26.9791 22.5115 26.9791 22.976V24.4856C26.9791 24.9501 26.7898 25.3373 26.5248 25.6469C26.2219 25.9566 25.8433 26.1114 25.389 26.1114H23.9125C23.4582 26.1114 23.0796 25.7774 22.7768 25.5065C22.4739 25.1968 22.3225 24.8096 22.3225 24.3451V22.8355C22.3225 22.371 22.5117 21.9838 22.7768 21.6741C23.0796 21.3644 23.4582 21.3501 23.9125 21.3501ZM21.7924 15H39.2076C40.7977 15 42.2363 15.6581 43.2964 16.742C44.3564 17.8259 45 19.2968 45 20.9226V39.0774C45 40.7032 44.3564 42.1743 43.2964 43.2581C42.2363 44.342 40.7977 45 39.2076 45H21.7924C20.2023 45 18.7637 44.342 17.7037 43.2581C16.6436 42.1743 16 40.7032 16 39.0774V20.9226C16 19.2968 16.6436 17.8259 17.7037 16.742C18.7637 15.6581 20.2023 15 21.7924 15ZM39.2076 16.8194H21.7924C20.6945 16.8194 19.6723 17.2839 18.953 18.0194C18.2337 18.7548 17.7794 19.8 17.7794 20.9226V39.0774C17.7794 40.2 18.2337 41.2452 18.953 41.9807C19.6723 42.7161 20.6945 43.1806 21.7924 43.1806H39.2076C40.3055 43.1806 41.3277 42.7161 42.047 41.9807C42.7663 41.2452 43.2206 40.2 43.2206 39.0774V20.9226C43.2206 19.8 42.7663 18.7548 42.047 18.0194C41.3277 17.2839 40.3055 16.8194 39.2076 16.8194ZM33.7559 18.2609C33.983 18.2609 34.2102 18.4544 34.2102 18.7254C34.2102 18.9576 34.0209 19.1899 33.7559 19.1899C33.5287 19.1899 33.3016 18.9963 33.3016 18.7254C33.3016 18.4931 33.4909 18.2609 33.7559 18.2609ZM30.5 18.2609C30.7272 18.2609 30.9543 18.4544 30.9543 18.7254C30.9543 18.9576 30.765 19.1899 30.5 19.1899C30.2729 19.1899 30.0457 18.9963 30.0457 18.7254C30.0457 18.4931 30.235 18.2609 30.5 18.2609ZM27.2441 18.2609C27.4713 18.2609 27.6984 18.4544 27.6984 18.7254C27.6984 18.9576 27.5091 19.1899 27.2441 19.1899C27.017 19.1899 26.7898 18.9963 26.7898 18.7254C26.7898 18.4931 26.9791 18.2609 27.2441 18.2609ZM35.6488 34.3162H37.1253C37.5796 34.3162 37.9582 34.5097 38.2611 34.7807C38.564 35.0904 38.7154 35.4774 38.7154 35.9419V37.4517C38.7154 37.9162 38.5261 38.3032 38.2611 38.6129C37.9582 38.9226 37.5796 39.0774 37.1253 39.0774H35.6488C35.1945 39.0774 34.8159 38.8839 34.5131 38.6129C34.2102 38.3032 34.0587 37.9162 34.0587 37.4517V35.9419C34.0587 35.4774 34.248 35.0904 34.5131 34.7807C34.8159 34.471 35.1945 34.3162 35.6488 34.3162ZM37.1253 35.5162H35.6488C35.5352 35.5162 35.4217 35.5549 35.346 35.6323C35.2702 35.7097 35.2324 35.8258 35.2324 35.9419V37.4517C35.2324 37.5678 35.2702 37.6839 35.346 37.7613C35.4217 37.8387 35.5352 37.8774 35.6488 37.8774H37.1253C37.2389 37.8774 37.3525 37.8387 37.4282 37.7613C37.5039 37.6839 37.5418 37.5678 37.5418 37.4517V35.9419C37.5418 35.8258 37.5039 35.7097 37.4282 35.6323C37.3525 35.5549 37.2389 35.5162 37.1253 35.5162ZM35.6488 27.7945H37.1253C37.5796 27.7945 37.9582 27.9881 38.2611 28.2591C38.564 28.5688 38.7154 28.9558 38.7154 29.4203V30.9299C38.7154 31.3945 38.5261 31.7816 38.2611 32.0913C37.9582 32.401 37.5796 32.5558 37.1253 32.5558H35.6488C35.1945 32.5558 34.8159 32.3623 34.5131 32.0913C34.2102 31.7816 34.0587 31.3945 34.0587 30.9299V29.4203C34.0587 28.9558 34.248 28.5688 34.5131 28.2591C34.8159 27.9494 35.1945 27.7945 35.6488 27.7945ZM37.1253 28.9945H35.6488C35.5352 28.9945 35.4217 29.0333 35.346 29.1107C35.2702 29.1881 35.2324 29.3042 35.2324 29.4203V30.9299C35.2324 31.0461 35.2702 31.1623 35.346 31.2397C35.4217 31.3171 35.5352 31.3558 35.6488 31.3558H37.1253C37.2389 31.3558 37.3525 31.3171 37.4282 31.2397C37.5039 31.1623 37.5418 31.0461 37.5418 30.9299V29.4203C37.5418 29.3042 37.5039 29.1881 37.4282 29.1107C37.3525 29.0333 37.2389 28.9945 37.1253 28.9945ZM29.7807 34.2775H31.2572C31.7115 34.2775 32.0901 34.471 32.393 34.742C32.6958 35.0516 32.8473 35.4387 32.8473 35.9032V37.4129C32.8473 37.8775 32.658 38.2645 32.393 38.5742C32.0901 38.8839 31.7115 39.0388 31.2572 39.0388H29.7807C29.3264 39.0388 28.9478 38.8451 28.6449 38.5742C28.342 38.2645 28.1906 37.8775 28.1906 37.4129V35.9032C28.1906 35.4387 28.3799 35.0516 28.6449 34.742C28.9478 34.4323 29.3264 34.2775 29.7807 34.2775ZM31.2572 35.4775H29.7807C29.6671 35.4775 29.5535 35.5162 29.4778 35.5936C29.4021 35.671 29.3642 35.7871 29.3642 35.9032V37.4129C29.3642 37.5291 29.4021 37.6451 29.4778 37.7226C29.5535 37.8 29.6671 37.8387 29.7807 37.8387H31.2572C31.3708 37.8387 31.4843 37.8 31.5601 37.7226C31.6358 37.6451 31.6736 37.5291 31.6736 37.4129V35.9032C31.6736 35.7871 31.6358 35.671 31.5601 35.5936C31.4843 35.5162 31.3708 35.4775 31.2572 35.4775ZM29.7807 27.7558H31.2572C31.7115 27.7558 32.0901 27.9494 32.393 28.2203C32.6958 28.53 32.8473 28.9171 32.8473 29.3816V30.8913C32.8473 31.3558 32.658 31.7429 32.393 32.0526C32.0901 32.3622 31.7115 32.5171 31.2572 32.5171H29.7807C29.3264 32.5171 28.9478 32.3235 28.6449 32.0526C28.342 31.7429 28.1906 31.3558 28.1906 30.8913V29.3816C28.1906 28.9171 28.3799 28.53 28.6449 28.2203C28.9478 27.9107 29.3264 27.7558 29.7807 27.7558ZM31.2572 28.9558H29.7807C29.6671 28.9558 29.5535 28.9945 29.4778 29.072C29.4021 29.1494 29.3642 29.2655 29.3642 29.3816V30.8913C29.3642 31.0074 29.4021 31.1235 29.4778 31.2009C29.5535 31.2784 29.6671 31.3171 29.7807 31.3171H31.2572C31.3708 31.3171 31.4843 31.2784 31.5601 31.2009C31.6358 31.1235 31.6736 31.0074 31.6736 30.8913V29.3816C31.6736 29.2655 31.6358 29.1494 31.5601 29.072C31.4843 28.9945 31.3708 28.9558 31.2572 28.9558ZM23.9125 34.2387H25.389C25.8433 34.2387 26.2219 34.4322 26.5248 34.7032C26.8277 35.0129 26.9791 35.4001 26.9791 35.8646V37.3742C26.9791 37.8387 26.7898 38.2259 26.5248 38.5355C26.2219 38.8452 25.8433 39 25.389 39H23.9125C23.4582 39 23.0796 38.8065 22.7768 38.5355C22.4739 38.2259 22.3225 37.8387 22.3225 37.3742V35.8646C22.3225 35.4001 22.5117 35.0129 22.7768 34.7032L22.8146 34.6646C23.1175 34.3936 23.4961 34.2387 23.9125 34.2387ZM25.389 35.4387H23.9125C23.799 35.4387 23.7232 35.4774 23.6475 35.5548L23.6097 35.5936C23.5339 35.671 23.4961 35.7871 23.4961 35.9032V37.4129C23.4961 37.5291 23.5339 37.6451 23.6097 37.7226C23.6854 37.8 23.799 37.8387 23.9125 37.8387H25.389C25.5026 37.8387 25.6162 37.8 25.6919 37.7226C25.7676 37.6451 25.8055 37.5291 25.8055 37.4129V35.9032C25.8055 35.7871 25.7676 35.671 25.6919 35.5936C25.6162 35.5162 25.5026 35.4775 25.389 35.4775V35.4387ZM23.9125 27.7171H25.389C25.8433 27.7171 26.2219 27.9106 26.5248 28.1816C26.8277 28.4913 26.9791 28.8784 26.9791 29.343V30.8526C26.9791 31.3171 26.7898 31.7043 26.5248 32.0139C26.2219 32.3236 25.8433 32.4784 25.389 32.4784H23.9125C23.4582 32.4784 23.0796 32.2849 22.7768 32.0139C22.4739 31.7043 22.3225 31.3171 22.3225 30.8526V29.343C22.3225 28.8784 22.5117 28.4913 22.7768 28.1816C23.0796 27.8719 23.4582 27.7171 23.9125 27.7171ZM25.389 28.9171H23.9125C23.799 28.9171 23.6854 28.9558 23.6097 29.0332C23.5339 29.1106 23.4961 29.2268 23.4961 29.343V30.8526C23.4961 30.9687 23.5339 31.0849 23.6097 31.1623C23.6854 31.2397 23.799 31.2784 23.9125 31.2784H25.389C25.5026 31.2784 25.6162 31.2397 25.6919 31.1623C25.7676 31.0849 25.8055 30.9687 25.8055 30.8526V29.343C25.8055 29.2268 25.7676 29.1106 25.6919 29.0332C25.6162 28.9558 25.5026 28.9171 25.389 28.9171ZM35.6488 21.2727H37.1253C37.5796 21.2727 37.9582 21.4663 38.2611 21.7372C38.564 22.0469 38.7154 22.434 38.7154 22.8985V24.4082C38.7154 24.8727 38.5261 25.2598 38.2611 25.5694C37.9582 25.8791 37.5796 26.0339 37.1253 26.0339H35.6488C35.1945 26.0339 34.8159 25.8404 34.5131 25.5694C34.2102 25.2598 34.0587 24.8727 34.0587 24.4082V22.8985C34.0587 22.434 34.248 22.0469 34.5131 21.7372C34.8159 21.4276 35.1945 21.2727 35.6488 21.2727ZM37.1253 22.4727H35.6488C35.5352 22.4727 35.4217 22.5114 35.346 22.5888C35.2702 22.6663 35.2324 22.7823 35.2324 22.8985V24.4082C35.2324 24.5243 35.2702 24.6404 35.346 24.7178C35.4217 24.7953 35.5352 24.834 35.6488 24.834H37.1253C37.2389 24.834 37.3525 24.7953 37.4282 24.7178C37.5039 24.6404 37.5418 24.5243 37.5418 24.4082V22.8985C37.5418 22.7823 37.5039 22.6663 37.4282 22.5888C37.3525 22.5114 37.2389 22.4727 37.1253 22.4727ZM29.7807 21.2727H31.2572C31.7115 21.2727 32.0901 21.4663 32.393 21.7372C32.6958 22.0469 32.8473 22.434 32.8473 22.8985V24.4082C32.8473 24.8727 32.658 25.2598 32.393 25.5694C32.0901 25.8791 31.7115 26.0339 31.2572 26.0339H29.7807C29.3264 26.0339 28.9478 25.8404 28.6449 25.5694C28.342 25.2598 28.1906 24.8727 28.1906 24.4082V22.8985C28.1906 22.434 28.3799 22.0469 28.6449 21.7372C28.9478 21.4276 29.3264 21.2727 29.7807 21.2727ZM31.2572 22.4727H29.7807C29.6671 22.4727 29.5535 22.5114 29.4778 22.5888C29.4021 22.6663 29.3642 22.7823 29.3642 22.8985V24.4082C29.3642 24.5243 29.4021 24.6404 29.4778 24.7178C29.5535 24.7953 29.6671 24.834 29.7807 24.834H31.2572C31.3708 24.834 31.4843 24.7953 31.5601 24.7178C31.6358 24.6404 31.6736 24.5243 31.6736 24.4082V22.8985C31.6736 22.7823 31.6358 22.6663 31.5601 22.5888C31.4843 22.5114 31.3708 22.4727 31.2572 22.4727ZM25.389 22.4727H23.9125C23.799 22.4727 23.6854 22.5114 23.6097 22.5888C23.5339 22.6663 23.4961 22.7823 23.4961 22.8985V24.4082C23.4961 24.5243 23.5339 24.6404 23.6097 24.7178C23.6854 24.7953 23.799 24.834 23.9125 24.834H25.389C25.5026 24.834 25.6162 24.7953 25.6919 24.7178C25.7676 24.6404 25.8055 24.5243 25.8055 24.4082V22.8985C25.8055 22.7823 25.7676 22.6663 25.6919 22.5888C25.6162 22.5114 25.5026 22.4727 25.389 22.4727Z" fill="#52C0E4"/>
</svg>
