<svg width="61" height="60" viewBox="0 0 61 60" fill="none" xmlns="http://www.w3.org/2000/svg">
<rect x="1" y="0.5" width="59" height="59" rx="29.5" stroke="#56CCF2"/>
<path d="M22.1135 35V34.1051L25.4743 30.4261C25.8688 29.9953 26.1936 29.6207 26.4488 29.3026C26.704 28.9811 26.8929 28.6795 27.0155 28.3977C27.1415 28.1127 27.2045 27.8144 27.2045 27.5028C27.2045 27.1449 27.1183 26.835 26.9459 26.5732C26.7769 26.3113 26.5449 26.1091 26.2499 25.9666C25.9549 25.8241 25.6235 25.7528 25.2556 25.7528C24.8645 25.7528 24.5231 25.834 24.2314 25.9964C23.9431 26.1555 23.7194 26.3793 23.5603 26.6676C23.4045 26.956 23.3266 27.294 23.3266 27.6818H22.1533C22.1533 27.0852 22.2909 26.5616 22.566 26.1108C22.8411 25.66 23.2156 25.3087 23.6895 25.0568C24.1668 24.8049 24.7021 24.679 25.2954 24.679C25.892 24.679 26.4206 24.8049 26.8813 25.0568C27.342 25.3087 27.7033 25.6484 27.9651 26.076C28.2269 26.5036 28.3579 26.9792 28.3579 27.5028C28.3579 27.8774 28.2899 28.2436 28.154 28.6016C28.0215 28.9562 27.7894 29.3523 27.458 29.7898C27.1299 30.224 26.6742 30.7543 26.0908 31.3807L23.8039 33.8267V33.9062H28.5368V35H22.1135ZM37.7293 28C37.6199 27.6652 37.4758 27.3653 37.2968 27.1001C37.1211 26.8317 36.9107 26.603 36.6654 26.4141C36.4234 26.2251 36.1483 26.081 35.8401 25.9815C35.5319 25.8821 35.1938 25.8324 34.8259 25.8324C34.2227 25.8324 33.6742 25.9882 33.1803 26.2997C32.6865 26.6113 32.2937 27.0703 32.002 27.6768C31.7104 28.2834 31.5645 29.0275 31.5645 29.9091C31.5645 30.7907 31.712 31.5348 32.007 32.1413C32.302 32.7479 32.7014 33.2069 33.2052 33.5185C33.709 33.83 34.2757 33.9858 34.9055 33.9858C35.4888 33.9858 36.0025 33.8615 36.4466 33.6129C36.8941 33.361 37.2421 33.0064 37.4907 32.549C37.7426 32.0883 37.8685 31.5464 37.8685 30.9233L38.2464 31.0028H35.1839V29.9091H39.0617V31.0028C39.0617 31.8414 38.8827 32.5705 38.5248 33.1903C38.1701 33.8101 37.6796 34.2907 37.0532 34.6321C36.4301 34.9702 35.7142 35.1392 34.9055 35.1392C34.0039 35.1392 33.2118 34.9271 32.529 34.5028C31.8496 34.0786 31.3193 33.4754 30.9381 32.6932C30.5603 31.911 30.3714 30.983 30.3714 29.9091C30.3714 29.1037 30.4791 28.3795 30.6945 27.7365C30.9133 27.0902 31.2215 26.54 31.6192 26.0859C32.017 25.6319 32.4876 25.2839 33.0312 25.0419C33.5747 24.8 34.173 24.679 34.8259 24.679C35.3628 24.679 35.8633 24.7602 36.3273 24.9226C36.7947 25.0817 37.2106 25.3087 37.5752 25.6037C37.9431 25.8954 38.2497 26.245 38.4949 26.6527C38.7402 27.0571 38.9092 27.5062 39.002 28H37.7293Z" fill="#56CCF2"/>
</svg>
