<svg width="60" height="60" viewBox="0 0 60 60" fill="none" xmlns="http://www.w3.org/2000/svg">
<rect x="0.5" y="0.5" width="59" height="59" rx="29.5" stroke="#56CCF2"/>
<path d="M12.9618 39.922C12.8197 39.4851 13.0328 38.9753 13.4946 38.8297C13.9209 38.684 14.4182 38.9025 14.5603 39.3758C14.8445 40.2497 15.3062 40.9415 16.1233 41.4512C16.9758 41.9974 18.1835 42.2887 19.9596 42.2887H31.4688C33.9198 42.2887 35.3407 41.7061 36.1222 40.723L36.1577 40.6866C36.8326 39.8491 37.1168 38.684 37.2234 37.3732C36.655 37.2275 36.1577 36.8999 35.767 36.4994C35.1631 35.8804 34.8079 35.0429 34.8079 34.0962C34.8079 33.1495 35.1631 32.3121 35.767 31.6931C36.3708 31.0741 37.1879 30.71 38.1114 30.71C39.035 30.71 39.852 31.0741 40.4559 31.6931L40.4914 31.7295C41.0598 32.3485 41.415 33.1496 41.415 34.0598C41.415 35.0065 41.0598 35.8439 40.4559 36.4629C40.0296 36.8998 39.4968 37.1911 38.8929 37.3732C38.7508 39.0481 38.3956 40.5774 37.4365 41.7789L37.401 41.8518C36.2998 43.199 34.4882 44 31.4688 44H19.9596C17.8638 44 16.3719 43.5995 15.2707 42.9077C14.0985 42.1794 13.4236 41.16 12.9973 39.922H12.9618ZM39.2126 32.8947C38.9284 32.6034 38.5022 32.3849 38.0404 32.3849C37.5786 32.3849 37.1879 32.567 36.8682 32.8947C36.584 33.1859 36.3708 33.6229 36.3708 34.0962C36.3708 34.5696 36.5485 34.9701 36.8682 35.2978C37.1523 35.5891 37.5786 35.8075 38.0404 35.8075C38.5022 35.8075 38.8929 35.6255 39.2126 35.2978C39.4968 35.0065 39.7099 34.5696 39.7099 34.0962C39.7099 33.6593 39.5323 33.2588 39.2481 32.9311L39.2126 32.8947ZM44.0792 27.1053H44.0436C43.6884 27.1418 43.4042 27.2874 43.1556 27.5059C43.12 27.5423 43.12 27.5787 43.0845 27.6151C43.049 27.6515 42.978 27.6879 42.9424 27.7243C42.6938 28.052 42.5517 28.489 42.5872 28.9259C42.6227 29.3992 42.8359 29.7997 43.1556 30.0546C43.4753 30.3459 43.9015 30.4915 44.3633 30.4551C44.8251 30.4187 45.2159 30.2002 45.4645 29.8725C45.7132 29.5449 45.8908 29.1079 45.8553 28.671V28.6346C45.8197 28.1977 45.6066 27.7971 45.2869 27.5059C44.9672 27.251 44.5409 27.0689 44.1147 27.1053H44.0792ZM43.9371 25.394C44.8251 25.3212 45.6776 25.6125 46.317 26.1951C46.9564 26.7412 47.4182 27.5787 47.4893 28.489C47.5603 29.3992 47.2761 30.2731 46.7078 30.9285C46.1749 31.5839 45.3579 32.0572 44.4699 32.1301C43.5463 32.2029 42.6938 31.9116 42.0544 31.329C41.415 30.7829 40.9532 29.9454 40.8822 29.0351C40.8111 28.3433 40.9887 27.6879 41.3084 27.1053L37.6141 23.6827C37.401 23.5735 37.2234 23.355 37.1879 23.0637C37.1879 22.9909 37.1523 22.9181 37.1523 22.8453C37.0458 21.3888 36.7616 20.078 35.9801 19.1677C35.1631 18.2575 33.7777 17.7113 31.3978 17.7113H19.8886C18.1125 17.7113 16.9047 18.0026 16.0522 18.5488C15.2707 19.0585 14.7734 19.7503 14.4892 20.6242C14.3471 21.0611 13.8854 21.316 13.4236 21.1703C12.9973 21.0247 12.7487 20.5513 12.8907 20.078C13.2815 18.8764 13.9919 17.8206 15.1642 17.0923C16.2653 16.4005 17.7928 16 19.8531 16H31.3622C34.275 16 36.0511 16.7646 37.1879 18.039C38.218 19.2042 38.6443 20.7698 38.7864 22.4811L42.4096 25.8674C42.8359 25.6125 43.3332 25.4305 43.866 25.3576L43.9371 25.394ZM12.571 22.736C12.571 22.2627 12.9263 21.8986 13.3881 21.8986C13.8498 21.8986 14.2051 22.2627 14.2051 22.736V23.355C14.2051 23.5371 14.5603 23.5371 14.9155 23.5735C16.0522 23.6463 17.1889 23.7191 17.1889 25.5396C17.1889 27.3602 16.0522 27.433 14.9155 27.5059C14.5603 27.5423 14.2051 27.5422 14.2051 27.7607C14.2051 27.9792 14.5603 27.9792 14.9155 28.0156C16.0522 28.0884 17.1889 28.1612 17.1889 29.9818C17.1889 31.8023 16.0522 31.8752 14.9155 31.948C14.5603 31.9844 14.2051 31.9844 14.2051 32.2028C14.2051 32.4213 14.5603 32.4577 14.9155 32.4941C16.0522 32.567 17.1534 32.6762 17.1534 34.4604C17.1534 36.2809 16.0167 36.3537 14.88 36.4265C14.5248 36.4629 14.2051 36.4629 14.1695 36.645V37.264C14.1695 37.7373 13.8143 38.1014 13.3525 38.1014C12.8907 38.1014 12.5355 37.7373 12.5355 37.264V36.6086C12.6066 34.8973 13.7077 34.8245 14.7734 34.7517C15.1286 34.7152 15.4839 34.7152 15.4839 34.4967C15.4839 34.2783 15.1286 34.2418 14.7734 34.2418C13.6367 34.169 12.5355 34.0598 12.5 32.2757V32.2028C12.571 30.4551 13.6722 30.3823 14.7734 30.3095C15.1286 30.2731 15.4839 30.2731 15.4839 30.0182C15.4839 29.7998 15.1286 29.7633 14.7734 29.7633C13.6367 29.6905 12.5 29.6177 12.5 27.7972C12.5 26.013 13.6367 25.9038 14.7734 25.8309C15.1286 25.7945 15.4839 25.7946 15.4839 25.5761C15.4839 25.3576 15.1286 25.3212 14.7734 25.3212C13.6722 25.2484 12.571 25.1756 12.5355 23.4642V22.8088L12.571 22.736Z" fill="#56CCF2"/>
</svg>
