<svg width="61" height="60" viewBox="0 0 61 60" fill="none" xmlns="http://www.w3.org/2000/svg">
<rect x="1" y="0.5" width="59" height="59" rx="29.5" stroke="#56CCF2"/>
<path d="M9.45339 35V34.1051L12.8142 30.4261C13.2086 29.9953 13.5334 29.6207 13.7886 29.3026C14.0438 28.9811 14.2327 28.6795 14.3554 28.3977C14.4813 28.1127 14.5443 27.8144 14.5443 27.5028C14.5443 27.1449 14.4581 26.835 14.2858 26.5732C14.1167 26.3113 13.8847 26.1091 13.5898 25.9666C13.2948 25.8241 12.9633 25.7528 12.5954 25.7528C12.2043 25.7528 11.863 25.834 11.5713 25.9964C11.2829 26.1555 11.0592 26.3793 10.9001 26.6676C10.7443 26.956 10.6665 27.294 10.6665 27.6818H9.49316C9.49316 27.0852 9.63071 26.5616 9.90581 26.1108C10.1809 25.66 10.5554 25.3087 11.0294 25.0568C11.5067 24.8049 12.0419 24.679 12.6352 24.679C13.2318 24.679 13.7604 24.8049 14.2211 25.0568C14.6818 25.3087 15.0431 25.6484 15.305 26.076C15.5668 26.5036 15.6977 26.9792 15.6977 27.5028C15.6977 27.8774 15.6298 28.2436 15.4939 28.6016C15.3613 28.9562 15.1293 29.3523 14.7979 29.7898C14.4697 30.224 14.014 30.7543 13.4307 31.3807L11.1437 33.8267V33.9062H15.8767V35H9.45339ZM29.0067 28C28.8973 27.6652 28.7531 27.3653 28.5741 27.1001C28.3985 26.8317 28.188 26.603 27.9427 26.4141C27.7008 26.2251 27.4257 26.081 27.1175 25.9815C26.8092 25.8821 26.4711 25.8324 26.1032 25.8324C25.5 25.8324 24.9515 25.9882 24.4577 26.2997C23.9638 26.6113 23.5711 27.0703 23.2794 27.6768C22.9877 28.2834 22.8419 29.0275 22.8419 29.9091C22.8419 30.7907 22.9894 31.5348 23.2844 32.1413C23.5793 32.7479 23.9787 33.2069 24.4825 33.5185C24.9863 33.83 25.5531 33.9858 26.1828 33.9858C26.7661 33.9858 27.2799 33.8615 27.724 33.6129C28.1714 33.361 28.5194 33.0064 28.768 32.549C29.0199 32.0883 29.1459 31.5464 29.1459 30.9233L29.5237 31.0028H26.4612V29.9091H30.339V31.0028C30.339 31.8414 30.1601 32.5705 29.8021 33.1903C29.4475 33.8101 28.9569 34.2907 28.3305 34.6321C27.7074 34.9702 26.9915 35.1392 26.1828 35.1392C25.2813 35.1392 24.4891 34.9271 23.8064 34.5028C23.1269 34.0786 22.5966 33.4754 22.2155 32.6932C21.8376 31.911 21.6487 30.983 21.6487 29.9091C21.6487 29.1037 21.7564 28.3795 21.9719 27.7365C22.1906 27.0902 22.4988 26.54 22.8966 26.0859C23.2943 25.6319 23.7649 25.2839 24.3085 25.0419C24.8521 24.8 25.4503 24.679 26.1032 24.679C26.6402 24.679 27.1407 24.7602 27.6047 24.9226C28.072 25.0817 28.488 25.3087 28.8525 25.6037C29.2204 25.8954 29.527 26.245 29.7723 26.6527C30.0175 27.0571 30.1866 27.5062 30.2794 28H29.0067ZM38.0189 27.3636C37.9593 26.8598 37.7173 26.4688 37.2931 26.1903C36.8688 25.9119 36.3485 25.7727 35.732 25.7727C35.2812 25.7727 34.8868 25.8456 34.5487 25.9915C34.214 26.1373 33.9521 26.3378 33.7632 26.593C33.5776 26.8482 33.4848 27.1383 33.4848 27.4631C33.4848 27.7348 33.5494 27.9685 33.6787 28.1641C33.8113 28.3563 33.9803 28.517 34.1858 28.6463C34.3913 28.7723 34.6067 28.8767 34.8321 28.9595C35.0575 29.0391 35.2646 29.1037 35.4536 29.1534L36.4877 29.4318C36.7528 29.5014 37.0478 29.5975 37.3726 29.7202C37.7007 29.8428 38.0139 30.0102 38.3122 30.2223C38.6138 30.4311 38.8624 30.6996 39.058 31.0277C39.2535 31.3558 39.3513 31.7585 39.3513 32.2358C39.3513 32.786 39.2071 33.2831 38.9188 33.7273C38.6337 34.1714 38.2161 34.5244 37.6659 34.7862C37.1191 35.0481 36.4545 35.179 35.6723 35.179C34.9432 35.179 34.3118 35.0613 33.7781 34.826C33.2478 34.5907 32.8302 34.2625 32.5253 33.8416C32.2237 33.4207 32.053 32.9318 32.0132 32.375H33.286C33.3191 32.7595 33.4484 33.0777 33.6737 33.3295C33.9024 33.5781 34.1908 33.7637 34.5388 33.8864C34.8901 34.0057 35.268 34.0653 35.6723 34.0653C36.143 34.0653 36.5655 33.9891 36.9401 33.8366C37.3146 33.6809 37.6112 33.4654 37.83 33.1903C38.0487 32.9119 38.1581 32.5871 38.1581 32.2159C38.1581 31.8778 38.0637 31.6027 37.8747 31.3906C37.6858 31.1785 37.4372 31.0062 37.129 30.8736C36.8208 30.741 36.4877 30.625 36.1297 30.5256L34.8769 30.1676C34.0814 29.9389 33.4517 29.6125 32.9877 29.1882C32.5236 28.764 32.2916 28.2088 32.2916 27.5227C32.2916 26.9527 32.4458 26.4555 32.754 26.0312C33.0655 25.6037 33.4832 25.2723 34.0068 25.0369C34.5338 24.7983 35.1221 24.679 35.7718 24.679C36.428 24.679 37.0113 24.7966 37.5218 25.032C38.0322 25.264 38.4365 25.5821 38.7348 25.9865C39.0364 26.3909 39.1955 26.8499 39.2121 27.3636H38.0189ZM41.3785 24.8182H42.8501L46.3103 33.2699H46.4296L49.8898 24.8182H51.3614V35H50.208V27.2642H50.1086L46.9268 35H45.8131L42.6313 27.2642H42.5319V35H41.3785V24.8182Z" fill="#56CCF2"/>
</svg>
