<svg width="60" height="60" viewBox="0 0 60 60" fill="none" xmlns="http://www.w3.org/2000/svg">
<rect x="0.5" y="0.5" width="59" height="59" rx="29.5" stroke="#56CCF2"/>
<path d="M41.4549 38.6377C43.4687 38.6377 44.5193 38.0869 45.0446 37.2464C45.5991 36.3478 45.6575 35.0145 45.6575 33.5942V26.3478C45.6575 24.9275 45.5991 23.5942 45.0446 22.6957C44.5193 21.8551 43.4687 21.3043 41.4549 21.3043H18.6034C16.5897 21.3043 15.5391 21.8551 15.0137 22.6957C14.4592 23.5942 14.4009 24.9275 14.4009 26.3478V33.5942C14.4009 35.0145 14.4592 36.3478 15.0137 37.2464C15.5391 38.0869 16.5897 38.6377 18.6034 38.6377H41.4549ZM30.9485 23.884C31.1528 23.5652 31.5614 23.4493 31.8824 23.6522C32.2034 23.8551 32.3202 24.2609 32.1159 24.5797L29.285 29.3333H31.9116C32.291 29.3333 32.5828 29.6522 32.5828 30C32.5828 30.1449 32.5245 30.2898 32.4661 30.4058L29.0807 36.1449C28.8764 36.4638 28.4678 36.5797 28.1468 36.3768C27.8258 36.1739 27.709 35.7681 27.9133 35.4493L30.7442 30.6957H28.1176C28.0009 30.6957 27.8841 30.6667 27.7674 30.6087C27.4463 30.4058 27.3296 30 27.5339 29.6811L30.9485 23.913V23.884ZM46.1828 37.971C45.424 39.2174 44.0232 40 41.4257 40H18.5742C16.006 40 14.6052 39.2174 13.8172 37.971C13.0876 36.7826 13 35.2464 13 33.6232V26.3768C13 24.7536 13.0876 23.2174 13.8172 22.029C14.576 20.7826 15.9768 20 18.5742 20H41.4257C43.994 20 45.3948 20.7826 46.1828 22.029C46.9124 23.2174 47 24.7536 47 26.3768V33.6232C47 35.2464 46.9124 36.7826 46.1828 37.971Z" fill="#56CCF2"/>
</svg>
