<svg width="61" height="60" viewBox="0 0 61 60" fill="none" xmlns="http://www.w3.org/2000/svg">
<rect x="1" y="0.5" width="59" height="59" rx="29.5" stroke="#56CCF2"/>
<g clip-path="url(#clip0_201_4530)">
<path fill-rule="evenodd" clip-rule="evenodd" d="M26.4001 8.24079C17.6232 9.73288 10.3212 15.8922 7.89314 23.8517C7.1192 26.3888 6.91823 28.0125 7.02762 30.8436C7.16552 34.4139 7.92486 37.1906 9.58909 40.2102C11.7728 44.1725 15.9861 48.0041 20.2362 49.8928C23.8561 51.5015 26.2838 52 30.4979 52C33.7576 52 35.1984 51.8117 37.6353 51.0676C43.7015 49.215 48.8967 44.9556 51.6996 39.5369C55.0853 32.9913 54.7104 24.9618 50.7293 18.7534C49.5041 16.8426 47.3064 14.4155 45.6614 13.1566C45.2411 12.835 44.8043 12.494 44.6906 12.3988C44.5768 12.3036 44.0829 11.9728 43.593 11.6635C41.0098 10.0333 37.5886 8.74718 34.4795 8.23712C32.5425 7.91935 28.2792 7.92136 26.4001 8.24079ZM33.6464 11.0676C40.2303 12.0688 45.8 15.9184 48.8009 21.5418C50.2078 24.1783 50.8086 26.7299 50.8086 30.0679C50.8086 34.3437 49.5919 37.8765 46.969 41.2179L46.1393 42.2746L31.7422 28.7748C20.5016 18.2348 17.3923 15.2309 17.5601 15.0736C17.6783 14.9628 18.3239 14.5196 18.9949 14.0889C23.155 11.4181 28.5869 10.2981 33.6464 11.0676ZM33.2149 14.6205C32.5493 15.2044 32.5144 15.4867 32.9922 16.4144C33.1816 16.782 33.3455 17.3834 33.3565 17.751L33.3767 18.4193L33.8151 17.5839C34.2646 16.7279 34.2664 16.6739 33.9138 14.7623L33.7939 14.1126L33.2149 14.6205ZM28.8944 14.6804C26.8764 15.1892 25.5132 16.0482 24.9035 17.1957C23.9997 18.8964 23.8513 18.6709 29.1016 23.577L33.7629 27.9326L33.638 27.1855C33.4688 26.1742 32.7107 24.693 31.0131 22.056C29.1756 19.2018 28.8392 18.4741 28.8301 17.3333C28.8223 16.3251 29.174 15.5342 29.9176 14.8879L30.3717 14.4932L29.9449 14.5082C29.7101 14.5165 29.2374 14.5941 28.8944 14.6804ZM29.5485 30.7917C43.7975 44.1563 43.8951 44.2524 43.5669 44.5957C42.6672 45.5371 39.8273 47.0725 37.2777 47.9959C33.2493 49.4547 27.9708 49.5087 23.8502 48.1329C17.7631 46.1007 12.9779 41.592 11.0034 36.0284C10.2226 33.8286 9.95789 31.9105 10.0605 29.1952C10.1961 25.6045 11.0083 23.0277 12.9726 19.9563C13.6078 18.9632 14.939 17.3333 15.115 17.3333C15.1615 17.3333 21.6565 23.3895 29.5485 30.7917ZM42.6576 19.4634C42.2412 19.854 41.9004 20.3228 41.9004 20.5053C41.9004 20.6877 42.181 21.3329 42.524 21.9392C42.9938 22.7696 43.1506 23.2544 43.16 23.9046L43.1723 24.7679L43.6263 23.6819C44.2493 22.1913 44.3336 21.3689 43.9356 20.6607C43.759 20.3467 43.5698 19.7892 43.5147 19.4217L43.4148 18.7534L42.6576 19.4634ZM37.9808 20.5288C36.6551 21.2315 36.0826 21.765 35.7327 22.6244C35.3758 23.5005 35.4484 24.1263 36.1963 26.6217C36.5434 27.7801 36.7498 28.8692 36.7632 29.6128L36.7844 30.7823L39.9732 33.7688C41.727 35.4113 43.1987 36.7209 43.2436 36.679C43.2883 36.6371 43.4853 36.0141 43.6817 35.2947C44.337 32.8921 44.0984 30.2039 43.0469 28.1393C42.4645 26.9962 42.3779 26.8699 40.905 25.0185C38.9837 22.603 38.6293 21.9641 38.7489 21.1293C38.8037 20.7454 38.934 20.4045 39.0382 20.372C39.2531 20.3048 39.299 20.0056 39.0943 20.0079C39.0207 20.0089 38.5197 20.2433 37.9808 20.5288ZM16.1316 23.5534C14.8569 24.6553 14.8415 24.8342 15.8998 26.2554C16.7026 27.3337 16.8168 27.5968 16.9289 28.6241L17.0547 29.7799L17.6296 28.3094C18.3945 26.3528 18.3842 25.6522 17.5764 24.6992C16.9663 23.9795 16.9446 23.863 17.2681 23.0554C17.4342 22.6411 16.9332 22.8606 16.1316 23.5534ZM20.205 29.4902C18.2862 33.126 17.7428 34.7901 17.9028 36.541C18.0934 38.6285 19.2919 40.4004 21.7678 42.2552C23.4324 43.5022 26.0992 44.3992 28.8944 44.6525C31.3675 44.8765 35.1375 44.0749 37.5429 42.8134L38.738 42.1867L33.0818 36.8808L27.4256 31.5749L26.7347 32.2228C26.2077 32.717 25.9025 32.8707 25.4478 32.8707C24.3259 32.8707 24.0074 32.1207 24.2908 30.146L24.4813 28.8186L23.1691 27.5895L21.8569 26.3604L20.205 29.4902Z" fill="#60C7E7"/>
</g>
<defs>
<clipPath id="clip0_201_4530">
<rect x="11" y="12" width="39" height="36" rx="18" fill="white"/>
</clipPath>
</defs>
</svg>
