<svg width="61" height="60" viewBox="0 0 61 60" fill="none" xmlns="http://www.w3.org/2000/svg">
<rect x="1" y="0.5" width="59" height="59" rx="29.5" stroke="#56CCF2"/>
<path d="M33.7537 35.5482C33.6219 36.0629 33.0783 36.3523 32.5511 36.2237C32.0239 36.095 31.7273 35.5643 31.8591 35.0497L33.1112 30.4825L28.4325 29.2602C27.9053 29.1316 27.6087 28.6009 27.7405 28.0863C27.8723 27.5716 28.416 27.2822 28.9432 27.4108L33.6219 28.633L34.874 24.0658C35.0058 23.5512 35.5494 23.2617 36.0766 23.3904C36.6038 23.519 36.9003 24.0497 36.7685 24.5643L35.5165 29.1316L40.1952 30.3538C40.7224 30.4825 41.0189 31.0132 40.8871 31.5278C40.7554 32.0424 40.2117 32.3319 39.6845 32.2032L35.0058 30.981L33.7537 35.5482ZM19.4209 37.7836C19.3221 37.9284 19.1903 38.0409 19.042 38.1053L18.9926 38.1213L18.9432 38.1374L18.9267 38.1374L18.9102 38.1374L18.8937 38.1374L18.8773 38.1374L18.8608 38.1374L18.8443 38.1374L18.8278 38.1374L18.8114 38.1374L18.7949 38.1374L18.7784 38.1374L18.7619 38.1374L18.7455 38.1374L18.729 38.1374L18.7125 38.1374L18.696 38.1374L18.6796 38.1374L18.6631 38.1374L18.6466 38.1374L18.6301 38.1374L18.6137 38.1374L18.5972 38.1374L18.5807 38.1374L18.5643 38.1374L18.5478 38.1374L18.5313 38.1374L18.5148 38.1374L18.4984 38.1374L18.4819 38.1374L18.4654 38.1374L18.4489 38.1374L18.4325 38.1374L18.416 38.1374L18.3995 38.1374L18.3501 38.1213L18.3007 38.1053C18.1524 38.0409 18.0206 37.9284 17.9217 37.7836C17.1474 36.6579 16.5379 35.4035 16.126 34.0687C15.7306 32.7822 15.5 31.4152 15.5 30.0161C15.5 28.617 15.7142 27.25 16.126 25.9635C16.5379 24.6608 17.131 23.4386 17.8888 22.3289C17.9547 22.2003 18.07 22.0877 18.2018 21.9912C18.6466 21.7018 19.2562 21.8143 19.5527 22.2485C19.7175 22.5058 19.8987 22.7792 20.0799 23.0848L20.2941 23.4708L25.1376 23.4708C25.4671 23.0205 25.846 22.6023 26.2414 22.2164C28.2842 20.2222 31.1013 19 34.215 19C37.3287 19 40.1458 20.2222 42.1886 22.2164C44.2315 24.2105 45.5 26.9605 45.5 30C45.5 33.0395 44.2315 35.7895 42.1886 37.7836C40.1458 39.7778 37.3287 41 34.215 41C31.1013 41 28.2842 39.7778 26.2414 37.7836C25.846 37.3977 25.4671 36.9795 25.1376 36.5292L20.2776 36.5292C20.1952 36.6901 20.0964 36.8509 20.014 36.9956C19.8657 37.2368 19.701 37.4942 19.5198 37.7515L19.4209 37.7836ZM18.2842 25.3845C18.1194 25.7544 17.9876 26.1243 17.8723 26.5102C17.5264 27.6038 17.3451 28.7939 17.3451 30.0161C17.3451 31.2383 17.5264 32.4284 17.8723 33.5219C17.9876 33.9079 18.1359 34.2778 18.2842 34.6477L23.869 34.6477C23.1936 33.2325 22.8311 31.6725 22.8311 30.0161C22.8311 28.3596 23.2101 26.7836 23.869 25.3845L18.2842 25.3845ZM43.4242 30.0161C43.4242 27.5073 42.3863 25.2237 40.7059 23.5833C39.0255 21.943 36.6862 20.9137 34.1161 20.9137C31.5461 20.9137 29.2068 21.9269 27.5264 23.5833C25.846 25.2237 24.7916 27.5073 24.7916 30.0161C24.7916 32.5249 25.8295 34.8085 27.5264 36.4488C29.2068 38.0892 31.5461 39.1184 34.1161 39.1184C36.6862 39.1184 39.0255 38.1053 40.7059 36.4649C42.3863 34.8246 43.4407 32.5409 43.4407 30.0322L43.4242 30.0161Z" fill="#56CCF2"/>
</svg>
