<svg width="61" height="60" viewBox="0 0 61 60" fill="none" xmlns="http://www.w3.org/2000/svg">
<rect x="1" y="0.5" width="59" height="59" rx="29.5" stroke="#56CCF2"/>
<path d="M35.4638 24.7225C35.4638 25.1266 35.1477 25.4548 34.7584 25.4548C34.3691 25.4548 34.053 25.1266 34.053 24.7225V19.6683C34.053 18.1191 33.6656 17.3228 33.057 16.9331C32.3948 16.5093 31.3903 16.4615 30.3079 16.4625L24.6564 16.4654C23.574 16.4615 22.5695 16.5093 21.9073 16.9331C21.2982 17.3228 20.9113 18.1191 20.9113 19.6683V38.0471C20.9113 39.5963 21.2987 40.3921 21.9073 40.7819C22.57 41.2061 23.574 41.2544 24.6564 41.2529L25.6766 41.25C26.0658 41.25 26.382 41.5782 26.382 41.9822C26.382 42.3863 26.0658 42.7144 25.6766 42.7144H24.6564C23.3585 42.7135 22.1347 42.6425 21.1686 42.0236C20.1485 41.3702 19.5 40.196 19.5 38.0466V19.6679C19.5 17.5185 20.1485 16.3437 21.1686 15.6903C22.1352 15.0714 23.3595 15.001 24.6564 15.003L30.3079 15C31.6053 15.001 32.8287 15.071 33.7957 15.6903C34.8158 16.3437 35.4643 17.5185 35.4643 19.6679V24.722L35.4638 24.7225ZM29.6362 26.6581C29.6504 26.6453 29.6651 26.6339 29.6784 26.6236C30.6146 25.9002 31.8973 26.0515 32.5799 26.9719C33.0138 26.5447 33.5317 26.3969 34.1968 26.455C34.7109 26.4999 35.2099 26.7098 35.5607 27.0976C35.7453 26.9325 35.9134 26.7679 36.1792 26.6783C37.3404 26.287 38.4446 26.9389 38.7598 28.161L40.6226 35.3778C40.7256 35.775 40.8305 36.1726 40.9288 36.5718C41.1894 37.6322 41.1666 38.766 41.215 39.853C41.2402 40.4108 41.5065 41.1362 41.4999 41.5742C41.4956 41.8551 41.4543 42.1217 41.1619 42.2572L31.3922 44.9757C30.9407 45.1156 30.7399 44.6214 30.6473 44.2577C30.5757 43.9759 30.5016 43.6945 30.429 43.4122C30.3155 42.9746 30.307 42.6415 29.8574 42.4937C29.4596 42.3616 29.057 42.2798 28.6659 42.1187C28.3103 41.9724 27.8631 41.6708 27.5754 41.4072C26.9578 40.842 26.4352 40.0437 25.8968 39.3888C25.6224 39.0538 25.3129 38.7276 25.0628 38.3738C24.9407 38.2013 24.7993 38.0392 24.6678 37.8736C24.1461 37.2168 24.0568 36.4934 24.2329 35.6804C24.2871 35.4306 24.447 35.1576 24.5558 34.925C24.8078 34.3899 24.9284 34.1395 24.7575 33.5261C24.5605 32.8155 24.5534 32.2666 24.9673 31.6492C25.1529 31.3717 25.3044 31.2195 25.5797 31.0342C25.8679 30.8406 26.0492 30.8223 26.2818 30.7726C26.1005 29.9028 25.819 29.0371 25.5978 28.1797C25.3481 27.2129 25.0993 26.2466 24.8501 25.2793C24.6455 24.487 24.1874 23.1625 24.2168 22.379C24.2624 21.1875 25.3485 20.1917 26.4907 20.271C27.8902 20.3686 28.316 21.4368 28.6345 22.6717C28.9141 23.7543 29.2569 25.5568 29.6362 26.6576V26.6581ZM31.7962 43.4092L40.0102 41.1026C39.9912 41.0213 39.9703 40.9376 39.9575 40.8543C39.8654 40.2551 39.7971 39.6633 39.8108 39.0557C39.8274 38.3358 39.7429 37.4415 39.5635 36.7462L37.4282 28.4773C37.31 28.019 36.8258 27.7978 36.4617 28.1245C36.0615 28.4822 36.6464 29.6175 35.6442 29.6693C34.7821 29.7141 34.9972 28.4201 34.5125 28.0319C34.156 27.7466 33.5934 27.8486 33.3632 28.2575C33.2046 28.5394 33.2787 28.6641 33.2977 28.9853C33.33 29.5397 32.8415 29.9304 32.3383 29.7107C31.7748 29.4658 31.8797 28.2413 31.4487 27.816C31.1377 27.5086 30.5605 27.5899 30.3084 27.9456C29.9666 28.4295 30.2956 29.1238 30.4294 29.6422C30.5082 29.9472 30.7428 30.5902 30.6829 30.8775C30.57 31.4186 29.8588 31.6659 29.4966 31.2249C29.2792 30.9598 28.9412 29.3598 28.8277 28.9208C28.4408 27.4248 28.0559 25.9288 27.6699 24.4323C27.4772 23.6863 27.3006 22.9353 27.0888 22.1942C26.946 21.6921 26.3929 21.6285 25.9823 21.8069C25.4577 22.0341 25.6092 22.6741 25.725 23.124L28.9156 35.4843C29.0342 35.944 29.1482 36.4648 28.6046 36.6886C28.0089 36.9335 27.7444 36.4767 27.611 35.9598L26.6265 32.1399C26.5804 32.1523 26.5315 32.1661 26.494 32.1725C26.2799 32.2099 26.1261 32.3346 26.0497 32.546C25.9096 32.9343 26.3497 33.7872 26.184 34.4855C26.0402 35.0915 25.7245 35.5183 25.5873 36.0337C25.4008 36.7368 25.7274 36.9413 26.1176 37.4449C26.4698 37.9012 26.841 38.3408 27.1961 38.7936C27.8114 39.5791 28.4988 40.6178 29.4862 40.9016C30.0231 41.0563 30.6753 41.1825 31.0812 41.6057C31.7886 42.3434 31.5697 42.7208 31.7962 43.4097V43.4092Z" fill="#56CCF2"/>
</svg>
