<svg width="61" height="60" viewBox="0 0 61 60" fill="none" xmlns="http://www.w3.org/2000/svg">
<rect x="1" y="0.5" width="59" height="59" rx="29.5" stroke="#56CCF2"/>
<path d="M31.7235 27.6541C31.1588 27.6541 30.7824 27.203 30.7824 26.7519C30.7824 26.2105 31.2529 25.8496 31.7235 25.8496C33.5118 25.8496 35.2059 26.5714 36.3353 27.6541C37.5588 28.8271 38.2176 30.3609 38.2176 32.0752C38.2176 32.6165 37.7471 32.9774 37.2765 32.9774C36.7118 32.9774 36.3353 32.5263 36.3353 32.0752C36.3353 30.9023 35.8647 29.7293 35.0176 28.9173C34.1706 28.1053 33.0412 27.6541 31.7235 27.6541ZM16.2882 41.9098H14.5V29.5489H17.0412L19.1118 36.9474V29.5489H20.9V41.9098H18.8294L16.2882 32.9774V41.9098ZM27.0176 35.0526V36.8571H24.3824V41.9098H22.4059V29.5489H27.7706V31.3534H24.4765V35.0526H27.1118H27.0176ZM34.5471 38.9323C34.5471 39.9248 34.2647 40.7368 33.7941 41.188C33.3235 41.7293 32.5706 42 31.5353 42C30.5941 42 29.8412 41.7293 29.2765 41.188C28.8059 40.6466 28.5235 39.9248 28.5235 38.9323V32.5263C28.5235 31.5338 28.8059 30.7218 29.2765 30.2707C29.7471 29.7293 30.5 29.4586 31.5353 29.4586C32.4765 29.4586 33.2294 29.7293 33.7941 30.2707C34.2647 30.812 34.5471 31.5338 34.5471 32.5263V33.6992H32.6647V32.3459C32.6647 31.5338 32.2882 31.1729 31.6294 31.1729C30.9706 31.1729 30.5941 31.5338 30.5941 32.3459V39.0226C30.5941 39.8346 30.9706 40.1955 31.6294 40.1955C32.2882 40.1955 32.6647 39.8346 32.6647 39.0226V37.218H34.5471V38.8421V38.9323ZM31.7235 19.8045C31.1588 19.8045 30.7824 19.3534 30.7824 18.9023C30.7824 18.3609 31.2529 18 31.7235 18C35.7706 18 39.5353 19.6241 42.1706 22.1504C44.8059 24.6767 46.5 28.2857 46.5 32.1654C46.5 32.7068 46.0294 33.0677 45.5588 33.0677C44.9941 33.0677 44.6176 32.6165 44.6176 32.1654C44.6176 28.7368 43.2059 25.6692 40.8529 23.5038C38.5 21.2481 35.3 19.8947 31.8176 19.8947L31.7235 19.8045ZM31.7235 23.6842C31.1588 23.6842 30.7824 23.2331 30.7824 22.782C30.7824 22.2406 31.2529 21.8797 31.7235 21.8797C34.6412 21.8797 37.3706 23.0526 39.3471 24.8571C41.3235 26.7519 42.4529 29.2782 42.4529 32.1654C42.4529 32.7068 41.9824 33.0677 41.5118 33.0677C40.9471 33.0677 40.5706 32.6165 40.5706 32.1654C40.5706 29.8195 39.6294 27.7444 38.0294 26.2105C36.4294 24.6767 34.2647 23.7744 31.8176 23.7744L31.7235 23.6842Z" fill="#56CCF2"/>
</svg>
