<svg width="53" height="53" viewBox="0 0 53 53" fill="none" xmlns="http://www.w3.org/2000/svg">
<rect x="0.5" y="0.5" width="52" height="52" rx="17.5" stroke="#56CCF2"/>
<path d="M21.5605 17.3615C22.9119 17.3615 23.9208 17.755 24.5933 18.5419C25.2659 19.3288 25.6022 20.4267 25.6022 21.8483V22.1783H23.7304V21.715C23.7304 20.8963 23.5528 20.2617 23.2038 19.8175C22.8548 19.3733 22.3219 19.1512 21.6049 19.1512C20.8562 19.1512 20.3042 19.3923 19.9552 19.8683C19.6062 20.3442 19.4286 21.074 19.4286 22.045V26.0685C19.9425 24.7865 20.9069 24.1456 22.3219 24.1456C23.4513 24.1456 24.2888 24.52 24.8345 25.2752C25.3801 26.024 25.653 27.0712 25.653 28.3975V31.1137C25.653 32.5162 25.304 33.6204 24.5997 34.4327C23.9017 35.245 22.8866 35.6512 21.5541 35.6512C20.2027 35.6512 19.1811 35.245 18.4832 34.4327C17.7852 33.6204 17.4299 32.5162 17.4299 31.1137V21.9688C17.4299 20.5029 17.7725 19.3669 18.4578 18.561C19.1431 17.755 20.1709 17.3552 21.5541 17.3552L21.5605 17.3615ZM10.0127 22.1846C10.0127 21.2644 10.6028 20.4775 11.4213 20.1856C11.453 18.0025 11.6497 15.9717 12.6141 14.3852C13.7245 12.5638 15.7739 11.4088 19.5555 11.4088H20.2027C20.4945 10.5902 21.2813 10 22.195 10C23.3624 10 24.3142 10.9456 24.3142 12.1196C24.3142 13.2873 23.3688 14.2392 22.195 14.2392C21.2749 14.2392 20.4945 13.6554 20.2027 12.8367H19.5555C16.3576 12.8367 14.6826 13.7252 13.826 15.1277C13.0329 16.4287 12.8616 18.2246 12.8362 20.1856C13.6547 20.4775 14.2384 21.2581 14.2384 22.1783C14.2384 23.346 13.293 24.2979 12.1192 24.2979C10.9517 24.2979 10 23.3523 10 22.1783L10.0127 22.1846ZM10.0127 30.8217C10.0127 29.654 10.9581 28.7021 12.1319 28.7021C13.2994 28.7021 14.2511 29.6477 14.2511 30.8217C14.2511 31.7419 13.6674 32.5225 12.8489 32.8144C12.8743 34.7754 13.0392 36.5777 13.8323 37.8787C14.6889 39.2812 16.364 40.1696 19.5618 40.1696H20.209C20.5009 39.351 21.2876 38.7608 22.2013 38.7608C23.3688 38.7608 24.3205 39.7063 24.3205 40.8804C24.3205 42.0481 23.3751 43 22.2013 43C21.2813 43 20.5009 42.4162 20.209 41.5975H19.5618C15.7739 41.5975 13.7308 40.4425 12.6205 38.6212C11.6497 37.0346 11.453 35.0038 11.4276 32.8208C10.6028 32.5288 10.0127 31.7483 10.0127 30.8217ZM38.7616 22.1846C38.7616 21.2644 39.3453 20.4838 40.1638 20.1919C40.1384 18.231 39.9735 16.4287 39.1803 15.1277C38.3238 13.7252 36.6487 12.8367 33.4509 12.8367H32.8354C32.5436 13.6554 31.7631 14.2392 30.8431 14.2392C29.6756 14.2392 28.7239 13.2937 28.7239 12.1196C28.7239 10.9519 29.6693 10 30.8431 10C31.7631 10 32.5436 10.5902 32.8354 11.4088H33.4509C37.2388 11.4088 39.2819 12.5638 40.3922 14.3852C41.363 15.9717 41.5597 17.9962 41.5851 20.1792C42.4099 20.4712 43 21.2581 43 22.1783C43 23.346 42.0546 24.2979 40.8808 24.2979C39.7133 24.2979 38.7616 23.3523 38.7616 22.1783V22.1846ZM38.7616 30.8217C38.7616 29.654 39.707 28.7021 40.8808 28.7021C42.0483 28.7021 43 29.6477 43 30.8217C43 31.7419 42.4099 32.5288 41.5914 32.8208C41.5597 35.0038 41.363 37.0346 40.3986 38.6212C39.2882 40.4425 37.2388 41.5975 33.4572 41.5975H32.8418C32.5499 42.4162 31.7695 43 30.8495 43C29.682 43 28.7302 42.0544 28.7302 40.8804C28.7302 39.7127 29.6756 38.7608 30.8495 38.7608C31.7695 38.7608 32.5499 39.351 32.8418 40.1696H33.4572C36.6551 40.1696 38.3301 39.2812 39.1867 37.8787C39.9798 36.5777 40.1511 34.7817 40.1765 32.8144C39.358 32.5225 38.7743 31.7419 38.7743 30.8217H38.7616ZM21.5605 25.9606C20.8435 25.9606 20.3105 26.189 19.9615 26.6396C19.6126 27.0902 19.4349 27.7312 19.4349 28.5498V31.2406C19.4349 32.0592 19.6126 32.6938 19.9615 33.1508C20.3105 33.6013 20.8435 33.8298 21.5605 33.8298C22.2584 33.8298 22.7914 33.6013 23.1467 33.1508C23.5084 32.7002 23.686 32.0592 23.686 31.2406V28.5498C23.686 27.7312 23.5084 27.0965 23.1467 26.6396C22.785 26.189 22.2584 25.9606 21.5605 25.9606ZM34.8023 35.4608H32.8545V31.8498H27.0679V30.0285L32.626 17.5265H34.8023V30.0285H36.2363V31.8498H34.8023V35.4608ZM32.8545 30.0285V21.2708L28.9079 30.0285H32.8545Z" fill="#56CCF2"/>
</svg>
