<svg width="53" height="53" viewBox="0 0 53 53" fill="none" xmlns="http://www.w3.org/2000/svg">
<rect x="0.5" y="0.5" width="52" height="52" rx="17.5" stroke="#56CCF2"/>
<path d="M10.0127 22.1846C10.0127 21.2644 10.6028 20.4775 11.4213 20.1856C11.453 18.0025 11.6497 15.9717 12.6141 14.3852C13.7245 12.5638 15.7739 11.4088 19.5555 11.4088H20.2027C20.4945 10.5902 21.2813 10 22.195 10C23.3624 10 24.3142 10.9456 24.3142 12.1196C24.3142 13.2873 23.3688 14.2392 22.195 14.2392C21.2749 14.2392 20.4945 13.6554 20.2027 12.8367H19.5555C16.3576 12.8367 14.6826 13.7252 13.826 15.1277C13.0329 16.4287 12.8616 18.2246 12.8362 20.1856C13.6547 20.4775 14.2384 21.2581 14.2384 22.1783C14.2384 23.346 13.293 24.2979 12.1192 24.2979C10.9517 24.2979 10 23.3523 10 22.1783L10.0127 22.1846ZM10.0127 30.8217C10.0127 29.654 10.9581 28.7021 12.1319 28.7021C13.2994 28.7021 14.2511 29.6477 14.2511 30.8217C14.2511 31.7419 13.6674 32.5225 12.8489 32.8144C12.8743 34.7754 13.0392 36.5777 13.8323 37.8787C14.6889 39.2812 16.364 40.1696 19.5618 40.1696H20.209C20.5009 39.351 21.2876 38.7608 22.2013 38.7608C23.3688 38.7608 24.3205 39.7063 24.3205 40.8804C24.3205 42.0481 23.3751 43 22.2013 43C21.2813 43 20.5009 42.4162 20.209 41.5975H19.5618C15.7739 41.5975 13.7308 40.4425 12.6205 38.6212C11.6497 37.0346 11.453 35.0038 11.4276 32.8208C10.6028 32.5288 10.0127 31.7483 10.0127 30.8217ZM38.7616 22.1846C38.7616 21.2644 39.3453 20.4838 40.1638 20.1919C40.1384 18.231 39.9735 16.4287 39.1803 15.1277C38.3238 13.7252 36.6487 12.8367 33.4509 12.8367H32.8354C32.5436 13.6554 31.7631 14.2392 30.8431 14.2392C29.6756 14.2392 28.7239 13.2937 28.7239 12.1196C28.7239 10.9519 29.6693 10 30.8431 10C31.7631 10 32.5436 10.5902 32.8354 11.4088H33.4509C37.2388 11.4088 39.2819 12.5638 40.3922 14.3852C41.363 15.9717 41.5597 17.9962 41.5851 20.1792C42.4099 20.4712 43 21.2581 43 22.1783C43 23.346 42.0546 24.2979 40.8808 24.2979C39.7133 24.2979 38.7616 23.3523 38.7616 22.1783V22.1846ZM38.7616 30.8217C38.7616 29.654 39.707 28.7021 40.8808 28.7021C42.0483 28.7021 43 29.6477 43 30.8217C43 31.7419 42.4099 32.5288 41.5914 32.8208C41.5597 35.0038 41.363 37.0346 40.3986 38.6212C39.2882 40.4425 37.2388 41.5975 33.4572 41.5975H32.8418C32.5499 42.4162 31.7695 43 30.8495 43C29.682 43 28.7302 42.0544 28.7302 40.8804C28.7302 39.7127 29.6756 38.7608 30.8495 38.7608C31.7695 38.7608 32.5499 39.351 32.8418 40.1696H33.4572C36.6551 40.1696 38.3301 39.2812 39.1867 37.8787C39.9798 36.5777 40.1511 34.7817 40.1765 32.8144C39.358 32.5225 38.7743 31.7419 38.7743 30.8217H38.7616Z" fill="#56CCF2"/>
<path d="M22.831 31.1193C22.2457 31.1193 21.723 31.0185 21.2628 30.8168C20.8054 30.6151 20.4432 30.3352 20.1761 29.9773C19.9119 29.6165 19.7699 29.1989 19.75 28.7244H21.0881C21.1051 28.983 21.1918 29.2074 21.348 29.3977C21.5071 29.5852 21.7145 29.7301 21.9702 29.8324C22.2259 29.9347 22.5099 29.9858 22.8224 29.9858C23.1662 29.9858 23.4702 29.9261 23.7344 29.8068C24.0014 29.6875 24.2102 29.5213 24.3608 29.3082C24.5114 29.0923 24.5866 28.8438 24.5866 28.5625C24.5866 28.2699 24.5114 28.0128 24.3608 27.7912C24.2131 27.5668 23.9957 27.3906 23.7088 27.2628C23.4247 27.1349 23.081 27.071 22.6776 27.071H21.9403V25.9972H22.6776C23.0014 25.9972 23.2855 25.9389 23.5298 25.8224C23.777 25.706 23.9702 25.544 24.1094 25.3366C24.2486 25.1264 24.3182 24.8807 24.3182 24.5994C24.3182 24.3295 24.2571 24.0952 24.1349 23.8963C24.0156 23.6946 23.8452 23.5369 23.6236 23.4233C23.4048 23.3097 23.1463 23.2528 22.848 23.2528C22.5639 23.2528 22.2983 23.3054 22.0511 23.4105C21.8068 23.5128 21.608 23.6605 21.4545 23.8537C21.3011 24.044 21.2188 24.2727 21.2074 24.5398H19.9332C19.9474 24.0682 20.0866 23.6534 20.3509 23.2955C20.6179 22.9375 20.9702 22.6577 21.4077 22.456C21.8452 22.2543 22.331 22.1534 22.8651 22.1534C23.4247 22.1534 23.9077 22.2628 24.3139 22.4815C24.723 22.6974 25.0384 22.9858 25.2599 23.3466C25.4844 23.7074 25.5952 24.1023 25.5923 24.5312C25.5952 25.0199 25.4588 25.4347 25.1832 25.7756C24.9105 26.1165 24.5469 26.3452 24.0923 26.4616V26.5298C24.6719 26.6179 25.1207 26.848 25.4389 27.2202C25.7599 27.5923 25.919 28.054 25.9162 28.6051C25.919 29.0852 25.7855 29.5156 25.5156 29.8963C25.2486 30.277 24.8835 30.5767 24.4205 30.7955C23.9574 31.0114 23.4276 31.1193 22.831 31.1193ZM27.527 31V30.0455L30.4801 26.9858C30.7955 26.6534 31.0554 26.3622 31.2599 26.1122C31.4673 25.8594 31.6222 25.6193 31.7244 25.392C31.8267 25.1648 31.8778 24.9233 31.8778 24.6676C31.8778 24.3778 31.8097 24.1278 31.6733 23.9176C31.5369 23.7045 31.3509 23.5412 31.1151 23.4276C30.8793 23.3111 30.6136 23.2528 30.3182 23.2528C30.0057 23.2528 29.733 23.3168 29.5 23.4446C29.267 23.5724 29.0881 23.7528 28.9631 23.9858C28.8381 24.2187 28.7756 24.4915 28.7756 24.804H27.5185C27.5185 24.2727 27.6406 23.8082 27.8849 23.4105C28.1293 23.0128 28.4645 22.7045 28.8906 22.4858C29.3168 22.2642 29.8011 22.1534 30.3438 22.1534C30.892 22.1534 31.375 22.2628 31.7926 22.4815C32.2131 22.6974 32.5412 22.9929 32.777 23.3679C33.0128 23.7401 33.1307 24.1605 33.1307 24.6293C33.1307 24.9531 33.0696 25.2699 32.9474 25.5795C32.8281 25.8892 32.6193 26.2344 32.321 26.6151C32.0227 26.9929 31.608 27.4517 31.0767 27.9915L29.3423 29.8068V29.8707H33.2713V31H27.527Z" fill="#56CCF2"/>
</svg>
