<svg width="53" height="53" viewBox="0 0 53 53" fill="none" xmlns="http://www.w3.org/2000/svg">
<rect x="1" y="1" width="51" height="51" rx="17" stroke="#56CCF2" stroke-width="2"/>
<path d="M22.1117 29.3055C21.6015 29.8068 20.751 29.8068 20.2408 29.3055C19.7305 28.8042 19.7305 27.9688 20.2408 27.4675C21.9757 25.7632 24.2548 24.9277 26.534 24.9277C28.8132 24.9277 31.0924 25.7966 32.8273 27.4675C33.3375 27.9688 33.3375 28.8042 32.8273 29.3055C32.317 29.8068 31.4666 29.8068 30.9563 29.3055C29.7317 28.1024 28.1328 27.5009 26.568 27.5009C24.9692 27.5009 23.3704 28.1024 22.1798 29.3055H22.1117ZM24.0848 31.2437C25.4114 29.9404 27.5886 29.9404 28.9493 31.2437C30.276 32.547 30.276 34.6858 28.9493 36.0225C27.6226 37.3258 25.4455 37.3258 24.0848 36.0225C22.7581 34.7192 22.7581 32.5805 24.0848 31.2437ZM14.2537 21.5859C13.7434 22.0872 12.893 22.0872 12.3827 21.5859C11.8724 21.0846 11.8724 20.2492 12.3827 19.7479C16.2947 15.9048 21.3974 14 26.5 14C31.6026 14 36.7393 15.9048 40.6173 19.7479C41.1276 20.2492 41.1276 21.0846 40.6173 21.5859C40.107 22.0872 39.2566 22.0872 38.7463 21.5859C35.3786 18.2775 30.9223 16.6066 26.5 16.6066C22.0777 16.6066 17.6214 18.2775 14.2537 21.5859ZM18.1317 25.3956C17.6214 25.8968 16.771 25.8968 16.2607 25.3956C15.7504 24.8943 15.7504 24.0588 16.2607 23.5576C19.0842 20.7839 22.8261 19.3803 26.534 19.3803C30.2419 19.3803 33.9839 20.7839 36.8073 23.5576C37.3176 24.0588 37.3176 24.8943 36.8073 25.3956C36.2971 25.8968 35.4466 25.8968 34.9364 25.3956C32.6232 23.1231 29.5956 21.9869 26.534 21.9869C23.5065 21.9869 20.4449 23.1231 18.1317 25.3956Z" fill="#56CCF2"/>
</svg>
