<svg width="21" height="26" viewBox="0 0 21 26" fill="none" xmlns="http://www.w3.org/2000/svg">
<path d="M10.2572 25.9517C5.07084 22.9319 2.29408 20.4437 0.986019 17.134C-0.322044 13.8485 -0.161407 9.83833 0.504098 3.67805C0.527047 3.38815 0.756531 3.17072 1.03191 3.17072C4.2447 3.17072 10.2572 0.0543554 10.2801 0.0543554C10.4408 -0.0181185 10.6014 -0.0181185 10.7391 0.0543554C10.7621 0.0543554 16.7746 3.17072 19.9874 3.17072C20.2857 3.17072 20.5152 3.4123 20.5152 3.70219C21.1577 9.81416 21.3184 13.8244 20.0103 17.1099C18.7022 20.4195 15.9255 22.8836 10.7391 25.9275C10.5785 26.0242 10.3719 26.0242 10.2113 25.9275L10.2572 25.9517ZM5.18559 15.8536H15.8566V14.839H5.18559V15.8536ZM15.8566 16.9891H5.18559V17.5689C5.18559 17.738 5.07084 17.8588 4.91021 17.8588H2.52357C3.87753 20.3229 6.35596 22.3763 10.5096 24.8163C14.6633 22.3763 17.1417 20.3229 18.4957 17.8588H16.1091C15.9714 17.8588 15.8337 17.738 15.8337 17.5689V16.9891H15.8566ZM5.18559 13.7036H15.8566V12.689H5.18559V13.7036ZM5.18559 11.5535H15.8566V10.5389H5.18559V11.5535ZM5.18559 9.40347H15.8566V8.38884H5.18559V9.40347ZM5.18559 7.25342H15.8566V6.72194C15.8566 6.55283 15.9714 6.43205 16.132 6.43205H19.7349C19.6661 5.75563 19.5972 5.03089 19.5284 4.282C16.4074 4.04042 11.6341 1.72124 10.5326 1.18976C9.43106 1.7454 4.63483 4.06458 1.53678 4.282C1.46794 5.03089 1.39909 5.75563 1.33024 6.43205H4.93315C5.09379 6.43205 5.20854 6.55283 5.20854 6.72194V7.25342H5.18559Z" fill="black"/>
</svg>
