<svg width="25" height="22" viewBox="0 0 25 22" fill="none" xmlns="http://www.w3.org/2000/svg">
<path d="M2.27746 0H9.10984C9.60374 0 10.0702 0.081679 10.5092 0.272273C10.9483 0.462867 11.3324 0.735142 11.6891 1.0891L16.3812 5.85396C16.7105 6.20792 16.9849 6.58911 17.1495 6.99753C17.3142 7.40594 17.3965 7.86881 17.3965 8.33168V19.7129C17.3965 20.3391 17.1495 20.9109 16.7105 21.3193C16.2989 21.7277 15.7227 22 15.0916 22H2.3049C1.6738 22 1.09757 21.7549 0.685982 21.3193C0.274393 20.9109 0 20.3391 0 19.7129V2.28713C0 1.66089 0.246953 1.08911 0.685982 0.680693C1.09757 0.272277 1.6738 0 2.3049 0H2.27746ZM21.2106 10.1287V12.797V17.3441C21.2106 17.698 21.0734 18.052 20.8264 18.2698C20.5794 18.5149 20.2502 18.651 19.8935 18.651H18.741V17.2896H19.8386V12.7698H18.741V11.4084H19.8386V10.1287H18.741V8.76732H19.8935H19.9209H19.9483H19.9758H20.0032H20.0307H20.0581H20.0855H20.113H20.1404H20.1679H20.1953H20.2227H20.2502H20.2776H20.3051H20.3325H20.3599H20.3874H20.4148H20.4422H20.4697H20.4971H20.5246H20.552H20.5794H20.6069H20.6343H20.6618H20.6892H20.7166H20.7441V8.79455V8.82178V8.84901V8.87624V8.90346V8.93069V8.95791V8.98515V9.01237V9.03961V9.06683V9.09406V9.12128V9.14851V9.17574V9.20296V9.2302V9.25742V9.28465V9.31188V9.33911V9.36633V9.39356V9.42079V9.44801V9.47525V9.50247V9.52971V9.55693V9.58415V9.61138V9.63861V9.66584V9.69306V9.7203V9.74752V9.77475V9.80198V9.8292V9.85643V9.88366V9.91089L21.2106 10.1287ZM12.5123 0H16.2715C16.7654 0 17.2319 0.081679 17.6709 0.272273C18.1099 0.462867 18.4941 0.735142 18.8508 1.0891L23.5429 5.85396C23.8722 6.20792 24.1465 6.58911 24.3112 6.99753C24.4758 7.40594 24.5581 7.86881 24.5581 8.33168V19.7129C24.5581 20.3391 24.3112 20.9109 23.8722 21.3193C23.4606 21.7277 22.8843 22 22.2532 22H17.9178C18.2471 21.5916 18.4941 21.1287 18.6038 20.6386H22.2532C22.5002 20.6386 22.7471 20.5297 22.9118 20.3663C23.0764 20.203 23.1862 19.9579 23.1862 19.7129V8.33168C23.1862 8.03217 23.1313 7.7599 23.0215 7.48763C22.9118 7.24258 22.7471 6.99752 22.5551 6.7797L17.863 2.01485C17.6434 1.79702 17.3965 1.63366 17.1495 1.52475C16.9026 1.41584 16.6008 1.36139 16.2715 1.36139H13.8294L12.6221 0.136137L12.4849 0H12.5123ZM9.54886 16.0099H7.79275V17.2896H9.54886V16.0099ZM7.79275 14.6485H9.5763C9.93301 14.6485 10.2623 14.7846 10.5092 15.0297C10.7562 15.2747 10.8934 15.6015 10.8934 15.9554V17.2896H12.6495V12.7698H10.8934H7.76531H6.39335H4.63723V14.6485H6.39335H7.07933H7.76531H7.79275ZM6.42079 17.2896V16.0099H4.66467V17.2896H6.42079ZM9.54886 11.4084V10.1287H7.79275V11.4084H9.54886ZM10.9208 10.1287V11.4084H12.6769V10.1287H10.9208ZM3.34759 9.8292V9.80198V9.77475V9.74752V9.7203V9.69306V9.66584V9.63861V9.61138V9.58415V9.55693V9.52971V9.50247V9.47525V9.44801V9.42079V9.39356V9.36633V9.33911V9.31188C3.37503 9.28465 3.37503 9.25743 3.40247 9.2302L3.42991 9.20296L3.45735 9.17574H3.48478H3.51222H3.53966H3.5671H3.59454H3.62198H3.64942H3.67686H3.7043H3.73174H3.75918H3.78662H3.81406H3.8415H3.86894H3.89638H3.92382H3.95125H3.97869H4.00613H4.03357H4.06101H4.08845H4.11589H4.14333H4.17076H4.1982H4.22564H4.25308H4.28052H4.30796H6.09152H6.7775H7.46348H10.5916H12.3751H12.4025H12.43H12.4574H12.4849H12.5123H12.5397H12.5672H12.5946H12.6221H12.6495H12.6769H12.7044H12.7318H12.7593H12.7867H12.8141H12.8416H12.869H12.8965H12.9239H12.9513H12.9788H13.0062H13.0337H13.0611H13.0885H13.116H13.1434H13.1708H13.1983H13.2257H13.2532L13.2806 9.20296L13.3355 9.2302L13.3904 9.25742L13.4178 9.28465L13.4452 9.31188L13.4727 9.33911L13.5001 9.36633L13.5276 9.39356C13.555 9.42079 13.555 9.44802 13.5824 9.50247L13.6099 9.52971L13.6373 9.58415V9.61138V9.63861L13.6648 9.69306V9.7203V9.74752V9.77475V9.80198V9.8292V9.85643V9.88366V9.91089V9.93811V9.96535V9.99257V10.0198V10.047V10.0743V10.1015V10.1287V10.1559V10.1832V10.2104V10.2376V10.2648V10.2921V10.3193V10.3465V13.0149V17.5619C13.6648 17.9158 13.5276 18.2698 13.2806 18.4876C13.0337 18.7327 12.7044 18.8688 12.3477 18.8688H10.5641H7.43604H6.75006H6.06407H4.28052H4.25308H4.22564H4.1982H4.17076H4.14333H4.11589H4.08845H4.06101H4.03357H4.00613H3.97869H3.95125H3.92382H3.89638H3.86894H3.8415H3.81406H3.78662H3.75918H3.73174H3.7043H3.67686H3.64942H3.62198H3.59454H3.5671H3.53966H3.51222H3.48478H3.45735H3.42991H3.40247L3.37503 18.8416L3.34759 18.8144V18.7871V18.7599V18.7327V18.7054V18.6782V18.651V18.6238V18.5965V18.5693V18.5421V18.5149V18.4876V18.4604V18.4332V18.4059V18.3787V18.3515V18.3243V18.297V18.2698V18.2426V18.2153V18.1881V18.1609V18.1337V18.1064V18.0792V18.052V18.0248V17.9975V17.9703V17.9431V17.9158V15.2475V13.3688V10.7005V10.6733V10.646V10.6188V10.5916V10.5644V10.5371V10.5099V10.4827V10.4554V10.4282V10.401V10.3738V10.3465V10.3193V10.2921V10.2648V9.8292ZM6.44822 11.4084V10.1287H4.69211V11.4084H6.44822ZM9.10984 1.33415H2.27746C2.03051 1.33415 1.78355 1.44307 1.61892 1.60644C1.45428 1.7698 1.34452 2.01485 1.34452 2.2599V19.6856C1.34452 19.9307 1.45428 20.1757 1.61892 20.3391C1.78355 20.5025 2.03051 20.6114 2.27746 20.6114H15.0642C15.3111 20.6114 15.5581 20.5025 15.7227 20.3391C15.8873 20.1757 15.9971 19.9307 15.9971 19.6856V8.30445C15.9971 8.00495 15.9422 7.73267 15.8325 7.46039C15.7227 7.21534 15.5581 6.9703 15.366 6.75248L10.6739 1.98762C10.4544 1.7698 10.2074 1.60643 9.96045 1.49752C9.7135 1.38861 9.41167 1.33415 9.0824 1.33415H9.10984Z" fill="black"/>
</svg>
