<svg width="29" height="18" viewBox="0 0 29 18" fill="none" xmlns="http://www.w3.org/2000/svg">
<path d="M24.2704 16.7739C25.988 16.7739 26.8841 16.2782 27.3322 15.5217C27.8051 14.713 27.8549 13.513 27.8549 12.2348V5.71305C27.8549 4.43479 27.8051 3.23478 27.3322 2.42609C26.8841 1.66957 25.988 1.1739 24.2704 1.1739H4.7794C3.0618 1.1739 2.16567 1.66957 1.7176 2.42609C1.24464 3.23478 1.19485 4.43479 1.19485 5.71305V12.2348C1.19485 13.513 1.24464 14.713 1.7176 15.5217C2.16567 16.2782 3.0618 16.7739 4.7794 16.7739H24.2704ZM15.309 3.49564C15.4833 3.20869 15.8318 3.10435 16.1056 3.28696C16.3794 3.46957 16.479 3.83479 16.3047 4.12174L13.8901 8.4H16.1305C16.4541 8.4 16.703 8.68695 16.703 8.99999C16.703 9.13042 16.6532 9.26086 16.6034 9.36521L13.7159 14.5304C13.5416 14.8174 13.1931 14.9217 12.9193 14.7391C12.6455 14.5565 12.5459 14.1913 12.7202 13.9043L15.1348 9.62609H12.8944C12.7948 9.62609 12.6953 9.59999 12.5957 9.54781C12.3219 9.3652 12.2223 8.99999 12.3966 8.71303L15.309 3.52173V3.49564ZM28.303 16.1739C27.6558 17.2956 26.4609 18 24.2455 18H4.75451C2.56395 18 1.3691 17.2956 0.696997 16.1739C0.0746798 15.1043 0 13.7217 0 12.2609V5.73912C0 4.27825 0.0746798 2.89564 0.696997 1.82608C1.34421 0.70434 2.53906 0 4.75451 0H24.2455C26.436 0 27.6309 0.70434 28.303 1.82608C28.9253 2.89564 29 4.27825 29 5.73912V12.2609C29 13.7217 28.9253 15.1043 28.303 16.1739Z" fill="black"/>
</svg>
