<svg width="60" height="47" viewBox="0 0 60 47" fill="none" xmlns="http://www.w3.org/2000/svg">
<path d="M0.79163 40.1548C0.54805 39.4214 0.91343 38.5657 1.70507 38.3212C2.43581 38.0767 3.28833 38.4434 3.53191 39.2379C4.01907 40.7048 4.81071 41.8661 6.2113 42.7217C7.67278 43.6385 9.74321 44.1274 12.788 44.1274H32.5179C36.7197 44.1274 39.1555 43.1496 40.4952 41.4994L40.5561 41.4382C41.7131 40.0325 42.2003 38.0767 42.3829 35.8764C41.4086 35.632 40.5561 35.0819 39.8862 34.4096C38.851 33.3706 38.2421 31.9649 38.2421 30.3758C38.2421 28.7867 38.851 27.381 39.8862 26.342C40.9215 25.303 42.322 24.6919 43.9053 24.6919C45.4886 24.6919 46.8892 25.303 47.9244 26.342L47.9853 26.4032C48.9596 27.4422 49.5686 28.7868 49.5686 30.3147C49.5686 31.9038 48.9596 33.3095 47.9244 34.3485C47.1936 35.0819 46.2802 35.5708 45.245 35.8764C45.0014 38.6879 44.3925 41.2549 42.7483 43.2718L42.6874 43.394C40.7997 45.6554 37.694 47 32.5179 47H12.788C9.19515 47 6.63756 46.3277 4.74982 45.1664C2.74028 43.9441 1.58327 42.2328 0.852527 40.1548H0.79163ZM45.7931 28.3589C45.3059 27.8699 44.5752 27.5032 43.7835 27.5032C42.9919 27.5032 42.3221 27.8088 41.774 28.3589C41.2868 28.8478 40.9215 29.5813 40.9215 30.3758C40.9215 31.1703 41.2259 31.8427 41.774 32.3927C42.2612 32.8817 42.9919 33.2484 43.7835 33.2484C44.5752 33.2484 45.245 32.9428 45.7931 32.3927C46.2802 31.9038 46.6456 31.1703 46.6456 30.3758C46.6456 29.6424 46.3411 28.9701 45.854 28.4201L45.7931 28.3589ZM54.1357 18.6411H54.0748C53.4658 18.7022 52.9787 18.9467 52.5524 19.3134C52.4915 19.3745 52.4915 19.4356 52.4306 19.4968C52.3697 19.5579 52.2479 19.619 52.1871 19.6801C51.7608 20.2302 51.5172 20.9636 51.5781 21.697C51.639 22.4916 52.0044 23.1638 52.5524 23.5917C53.1005 24.0806 53.8312 24.3251 54.6228 24.264C55.4145 24.2029 56.0843 23.8361 56.5106 23.2861C56.9369 22.736 57.2413 22.0026 57.1804 21.2691V21.2081C57.1195 20.4746 56.7542 19.8024 56.2061 19.3134C55.6581 18.8856 54.9273 18.58 54.1966 18.6411H54.1357ZM53.8921 15.7685C55.4145 15.6463 56.876 16.1353 57.9721 17.1131C59.0682 18.0299 59.8598 19.4357 59.9816 20.9636C60.1034 22.4916 59.6162 23.9584 58.6419 25.0585C57.7285 26.1587 56.3279 26.9532 54.8055 27.0755C53.2222 27.1977 51.7608 26.7087 50.6647 25.7309C49.5686 24.8141 48.7769 23.4083 48.6551 21.8804C48.5333 20.7191 48.8378 19.619 49.3859 18.6411L43.0528 12.896C42.6874 12.7126 42.3829 12.3459 42.322 11.857C42.322 11.7347 42.2612 11.6125 42.2612 11.4903C42.0785 9.04554 41.5913 6.84522 40.2516 5.31726C38.851 3.78931 36.4761 2.87257 32.3962 2.87257H12.6662C9.62142 2.87257 7.55098 3.36149 6.0895 4.27826C4.74981 5.13392 3.89728 6.29521 3.41012 7.76205C3.16654 8.49547 2.37491 8.92326 1.58327 8.67879C0.852532 8.43432 0.426269 7.63976 0.669849 6.84522C1.33969 4.82832 2.55759 3.05593 4.56713 1.83357C6.45487 0.67232 9.07336 0 12.6053 0H32.3353C37.3287 0 40.3734 1.28347 42.322 3.42261C44.088 5.3784 44.8187 8.00649 45.0623 10.8791L51.2736 16.5631C52.0044 16.1353 52.8569 15.8297 53.7703 15.7075L53.8921 15.7685ZM0.121793 11.3069C0.121793 10.5124 0.73074 9.90114 1.52238 9.90114C2.31401 9.90114 2.92296 10.5124 2.92296 11.3069V12.3459C2.92296 12.6515 3.53191 12.6515 4.14086 12.7126C6.08951 12.8349 8.03814 12.9571 8.03814 16.013C8.03814 19.0689 6.08951 19.1912 4.14086 19.3134C3.53191 19.3745 2.92296 19.3745 2.92296 19.7412C2.92296 20.1079 3.53191 20.1079 4.14086 20.1691C6.08951 20.2913 8.03814 20.4135 8.03814 23.4694C8.03814 26.5253 6.08951 26.6476 4.14086 26.7699C3.53191 26.831 2.92296 26.8309 2.92296 27.1976C2.92296 27.5643 3.53191 27.6255 4.14086 27.6866C6.08951 27.8088 7.97725 27.9922 7.97725 30.987C7.97725 34.0429 6.02861 34.1651 4.07997 34.2874C3.47102 34.3485 2.92296 34.3485 2.86206 34.6541V35.6931C2.86206 36.4876 2.25311 37.0989 1.46148 37.0989C0.669844 37.0989 0.0608964 36.4876 0.0608964 35.6931V34.593C0.182686 31.7204 2.07043 31.5982 3.89728 31.476C4.50623 31.4149 5.11518 31.4148 5.11518 31.0481C5.11518 30.6814 4.50623 30.6202 3.89728 30.6202C1.94864 30.498 0.060895 30.3147 0 27.3199V27.1976C0.12179 24.264 2.00953 24.1418 3.89728 24.0195C4.50623 23.9584 5.11518 23.9584 5.11518 23.5306C5.11518 23.1639 4.50623 23.1027 3.89728 23.1027C1.94864 22.9805 0 22.8583 0 19.8024C0 16.8076 1.94864 16.6242 3.89728 16.5019C4.50623 16.4408 5.11518 16.4409 5.11518 16.0741C5.11518 15.7074 4.50623 15.6463 3.89728 15.6463C2.00953 15.524 0.121791 15.4018 0.0608964 12.5293V11.4291L0.121793 11.3069Z" fill="#050f20"/>
</svg>
