<svg width="48" height="43" viewBox="0 0 48 43" fill="none" xmlns="http://www.w3.org/2000/svg">
<path d="M4.4514 0H17.8056C18.771 0 19.6827 0.159645 20.5408 0.53217C21.3989 0.904695 22.1497 1.43687 22.8469 2.1287L32.0179 11.4418C32.6615 12.1337 33.1978 12.8787 33.5196 13.677C33.8413 14.4752 34.0022 15.3799 34.0022 16.2846V38.5297C34.0022 39.7537 33.5196 40.8713 32.6615 41.6696C31.857 42.4678 30.7307 43 29.4972 43H4.50503C3.27151 43 2.14525 42.521 1.34078 41.6696C0.536313 40.8713 0 39.7537 0 38.5297V4.4703C0 3.24629 0.482682 2.12871 1.34078 1.33045C2.14525 0.532178 3.27151 0 4.50503 0H4.4514ZM41.457 19.797V25.0124V33.8998C41.457 34.5916 41.1888 35.2834 40.7062 35.7092C40.2235 36.1881 39.5799 36.4542 38.8827 36.4542H36.6302V33.7933H38.7754V24.9592H36.6302V22.2983H38.7754V19.797H36.6302V17.1361H38.8827H38.9363H38.9899H39.0436H39.0972H39.1508H39.2045H39.2581H39.3117H39.3654H39.419H39.4726H39.5263H39.5799H39.6335H39.6872H39.7408H39.7944H39.8481H39.9017H39.9553H40.0089H40.0626H40.1162H40.1698H40.2235H40.2771H40.3307H40.3844H40.438H40.4916H40.5453V17.1894V17.2426V17.2958V17.349V17.4022V17.4554V17.5087V17.5619V17.6151V17.6683V17.7215V17.7748V17.828V17.8812V17.9344V17.9876V18.0408V18.0941V18.1473V18.2005V18.2537V18.3069V18.3601V18.4134V18.4666V18.5198V18.573V18.6262V18.6795V18.7327V18.7859V18.8391V18.8923V18.9455V18.9988V19.052V19.1052V19.1584V19.2116V19.2649V19.3181V19.3713L41.457 19.797ZM24.4559 0H31.8034C32.7687 0 33.6804 0.159645 34.5385 0.53217C35.3966 0.904695 36.1475 1.43687 36.8447 2.1287L46.0156 11.4418C46.6592 12.1337 47.1955 12.8787 47.5173 13.677C47.8391 14.4752 48 15.3799 48 16.2846V38.5297C48 39.7537 47.5173 40.8713 46.6592 41.6696C45.8547 42.4678 44.7285 43 43.495 43H35.0212C35.6648 42.2017 36.1475 41.297 36.362 40.3391H43.495C43.9777 40.3391 44.4603 40.1262 44.7821 39.8069C45.1039 39.4876 45.3184 39.0087 45.3184 38.5297V16.2846C45.3184 15.6992 45.2112 15.1671 44.9967 14.6349C44.7821 14.1559 44.4603 13.677 44.0849 13.2512L34.914 3.93811C34.4849 3.51237 34.0022 3.19306 33.5196 2.98019C33.0369 2.76731 32.4469 2.66089 31.8034 2.66089H27.0302L24.6704 0.266085L24.4022 0H24.4559ZM18.6637 31.2921H15.2313V33.7933H18.6637V31.2921ZM15.2313 28.6312H18.7173C19.4145 28.6312 20.0581 28.8973 20.5408 29.3762C21.0235 29.8552 21.2916 30.4938 21.2916 31.1856V33.7933H24.724V24.9592H21.2916H15.1777H12.4961H9.06368V28.6312H12.4961H13.8369H15.1777H15.2313ZM12.5497 33.7933V31.2921H9.11731V33.7933H12.5497ZM18.6637 22.2983V19.797H15.2313V22.2983H18.6637ZM21.3453 19.797V22.2983H24.7777V19.797H21.3453ZM6.54301 19.2116V19.1584V19.1052V19.052V18.9988V18.9455V18.8923V18.8391V18.7859V18.7327V18.6795V18.6262V18.573V18.5198V18.4666V18.4134V18.3601V18.3069V18.2537V18.2005C6.59665 18.1473 6.59665 18.0941 6.65028 18.0408L6.70391 17.9876L6.75754 17.9344H6.81117H6.8648H6.91843H6.97206H7.0257H7.07933H7.13296H7.18659H7.24022H7.29385H7.34748H7.40111H7.45475H7.50838H7.56201H7.61564H7.66928H7.7229H7.77653H7.83016H7.8838H7.93743H7.99106H8.04469H8.09833H8.15195H8.20558H8.25921H8.31285H8.36648H8.42011H11.9061H13.2469H14.5877H20.7017H24.1877H24.2413H24.295H24.3486H24.4022H24.4559H24.5095H24.5631H24.6168H24.6704H24.724H24.7777H24.8313H24.8849H24.9385H24.9922H25.0458H25.0994H25.1531H25.2067H25.2603H25.314H25.3676H25.4212H25.4749H25.5285H25.5821H25.6357H25.6894H25.743H25.7966H25.8503H25.9039L25.9575 17.9876L26.0648 18.0408L26.1721 18.0941L26.2257 18.1473L26.2793 18.2005L26.333 18.2537L26.3866 18.3069L26.4402 18.3601C26.4939 18.4134 26.4939 18.4666 26.5475 18.573L26.6011 18.6262L26.6547 18.7327V18.7859V18.8391L26.7084 18.9455V18.9988V19.052V19.1052V19.1584V19.2116V19.2649V19.3181V19.3713V19.4245V19.4777V19.5309V19.5842V19.6374V19.6906V19.7438V19.797V19.8503V19.9035V19.9567V20.0099V20.0631V20.1163V20.1695V20.2228V25.4381V34.3255C26.7084 35.0173 26.4402 35.7092 25.9575 36.1349C25.4749 36.6139 24.8313 36.88 24.1341 36.88H20.648H14.5341H13.1933H11.8525H8.36648H8.31285H8.25921H8.20558H8.15195H8.09833H8.04469H7.99106H7.93743H7.8838H7.83016H7.77653H7.7229H7.66928H7.61564H7.56201H7.50838H7.45475H7.40111H7.34748H7.29385H7.24022H7.18659H7.13296H7.07933H7.0257H6.97206H6.91843H6.8648H6.81117H6.75754H6.70391H6.65028L6.59665 36.8267L6.54301 36.7735V36.7203V36.6671V36.6139V36.5606V36.5074V36.4542V36.401V36.3478V36.2946V36.2413V36.1881V36.1349V36.0817V36.0285V35.9752V35.922V35.8688V35.8156V35.7624V35.7092V35.6559V35.6027V35.5495V35.4963V35.4431V35.3898V35.3366V35.2834V35.2302V35.177V35.1238V35.0706V35.0173V29.802V26.13V20.9146V20.8614V20.8082V20.7549V20.7017V20.6485V20.5953V20.5421V20.4889V20.4356V20.3824V20.3292V20.276V20.2228V20.1695V20.1163V20.0631V19.2116ZM12.6033 22.2983V19.797H9.17095V22.2983H12.6033ZM17.8056 2.60766H4.4514C3.96872 2.60766 3.48603 2.82055 3.16425 3.13985C2.84246 3.45916 2.62793 3.93811 2.62793 4.41707V38.4765C2.62793 38.9555 2.84246 39.4344 3.16425 39.7537C3.48603 40.073 3.96872 40.2859 4.4514 40.2859H29.4436C29.9263 40.2859 30.4089 40.073 30.7307 39.7537C31.0525 39.4344 31.267 38.9555 31.267 38.4765V16.2314C31.267 15.646 31.1598 15.1139 30.9452 14.5817C30.7307 14.1027 30.4089 13.6238 30.0335 13.198L20.8626 3.8849C20.4335 3.45916 19.9508 3.13985 19.4682 2.92698C18.9855 2.71411 18.3955 2.60766 17.752 2.60766H17.8056Z" fill="#050f20"/>
</svg>
