<svg width="48" height="57" viewBox="0 0 48 57" fill="none" xmlns="http://www.w3.org/2000/svg">
<path d="M23.445 56.8941C11.5905 50.2738 5.24362 44.8188 2.25376 37.5631C-0.736101 30.3603 -0.368931 21.5686 1.15223 8.06342C1.20468 7.42788 1.72921 6.95118 2.35866 6.95118C9.70217 6.95118 23.445 0.119164 23.4975 0.119164C23.8647 -0.0397213 24.2318 -0.0397213 24.5466 0.119164C24.599 0.119164 38.3419 6.95118 45.6854 6.95118C46.3673 6.95118 46.8918 7.48081 46.8918 8.11635C48.3605 21.5157 48.7277 30.3073 45.7378 37.5101C42.748 44.7658 36.4011 50.1679 24.5466 56.8411C24.1794 57.053 23.7073 57.053 23.3401 56.8411L23.445 56.8941ZM11.8528 34.7561H36.2437V32.5317H11.8528V34.7561ZM36.2437 37.2453H11.8528V38.5164C11.8528 38.8871 11.5905 39.1519 11.2233 39.1519H5.76815C8.86292 44.554 14.5279 49.0558 24.022 54.4049C33.5161 49.0558 39.1811 44.554 42.2759 39.1519H36.8207C36.506 39.1519 36.1913 38.8871 36.1913 38.5164V37.2453H36.2437ZM11.8528 30.0425H36.2437V27.8181H11.8528V30.0425ZM11.8528 25.3289H36.2437V23.1045H11.8528V25.3289ZM11.8528 20.6153H36.2437V18.3909H11.8528V20.6153ZM11.8528 15.9017H36.2437V14.7366C36.2437 14.3658 36.506 14.101 36.8732 14.101H45.1084C44.951 12.6181 44.7937 11.0293 44.6363 9.38746C37.5026 8.85784 26.5923 3.77349 24.0745 2.60833C21.5567 3.82645 10.5939 8.9108 3.51264 9.38746C3.35528 11.0293 3.19792 12.6181 3.04056 14.101H11.2758C11.643 14.101 11.9052 14.3658 11.9052 14.7366V15.9017H11.8528Z" fill="#050f20"/>
</svg>
