<svg width="80" height="62" viewBox="0 0 80 62" fill="none" xmlns="http://www.w3.org/2000/svg">
<path d="M43.0588 24.9398C41.6471 24.9398 40.7059 23.7744 40.7059 22.609C40.7059 21.2105 41.8824 20.2782 43.0588 20.2782C47.5294 20.2782 51.7647 22.1429 54.5882 24.9398C57.6471 27.9699 59.2941 31.9323 59.2941 36.3609C59.2941 37.7594 58.1176 38.6917 56.9412 38.6917C55.5294 38.6917 54.5882 37.5263 54.5882 36.3609C54.5882 33.3308 53.4118 30.3008 51.2941 28.203C49.1765 26.1053 46.3529 24.9398 43.0588 24.9398ZM4.47059 61.7669H0V29.8346H6.35294L11.5294 48.9474V29.8346H16V61.7669H10.8235L4.47059 38.6917V61.7669ZM31.2941 44.0526V48.7143H24.7059V61.7669H19.7647V29.8346H33.1765V34.4962H24.9412V44.0526H31.5294H31.2941ZM50.1176 54.0752C50.1176 56.6391 49.4118 58.7368 48.2353 59.9023C47.0588 61.3007 45.1765 62 42.5882 62C40.2353 62 38.3529 61.3007 36.9412 59.9023C35.7647 58.5038 35.0588 56.6391 35.0588 54.0752V37.5263C35.0588 34.9624 35.7647 32.8647 36.9412 31.6992C38.1176 30.3008 40 29.6015 42.5882 29.6015C44.9412 29.6015 46.8235 30.3008 48.2353 31.6992C49.4118 33.0977 50.1176 34.9624 50.1176 37.5263V40.5564H45.4118V37.0602C45.4118 34.9624 44.4706 34.0301 42.8235 34.0301C41.1765 34.0301 40.2353 34.9624 40.2353 37.0602V54.3083C40.2353 56.406 41.1765 57.3383 42.8235 57.3383C44.4706 57.3383 45.4118 56.406 45.4118 54.3083V49.6466H50.1176V53.8421V54.0752ZM43.0588 4.66165C41.6471 4.66165 40.7059 3.49624 40.7059 2.33083C40.7059 0.932331 41.8824 0 43.0588 0C53.1765 0 62.5882 4.19549 69.1765 10.7218C75.7647 17.2481 80 26.5714 80 36.594C80 37.9925 78.8235 38.9248 77.6471 38.9248C76.2353 38.9248 75.2941 37.7594 75.2941 36.594C75.2941 27.7368 71.7647 19.812 65.8823 14.218C60 8.39098 52 4.89474 43.2941 4.89474L43.0588 4.66165ZM43.0588 14.6842C41.6471 14.6842 40.7059 13.5188 40.7059 12.3534C40.7059 10.9549 41.8824 10.0226 43.0588 10.0226C50.3529 10.0226 57.1765 13.0526 62.1176 17.7143C67.0588 22.609 69.8824 29.1353 69.8824 36.594C69.8824 37.9925 68.7059 38.9248 67.5294 38.9248C66.1176 38.9248 65.1765 37.7594 65.1765 36.594C65.1765 30.5338 62.8235 25.1729 58.8235 21.2105C54.8235 17.2481 49.4118 14.9173 43.2941 14.9173L43.0588 14.6842Z" fill="#050f20"/>
</svg>
