<svg width="45" height="58" viewBox="0 0 45 58" fill="none" xmlns="http://www.w3.org/2000/svg">
<path d="M2.45068 48.7766V49.5693C2.45068 52.4734 3.23217 53.9699 4.46131 54.7107C5.78907 55.5108 7.76935 55.5997 9.90137 55.5923L20.9181 55.5849C23.0501 55.5923 25.0303 55.5034 26.3581 54.7033C27.5873 53.9624 28.3687 52.466 28.3687 49.5619V48.7692C28.1411 48.9618 27.8983 49.1322 27.6404 49.2804C25.7891 50.399 23.4219 50.525 20.9181 50.5176L9.90137 50.525C7.39757 50.525 5.03035 50.399 3.17906 49.2804C2.92109 49.1248 2.6783 48.9544 2.45068 48.7692V48.7766ZM0 49.5693V8.41589C0 4.53391 1.23672 2.41512 3.17906 1.2446C5.03035 0.125942 7.39757 0 9.90137 0.00740835L20.9181 0C23.4219 0 25.7891 0.125942 27.6404 1.2446C28.7405 1.91136 29.613 2.87444 30.1669 4.28944H31.8892C34.8483 4.28944 36.4719 5.20807 37.39 6.6527C38.0273 7.66765 38.2473 8.86039 38.3156 10.1494H43.7709C44.4461 10.1494 45 10.6828 45 11.3496C45 12.0089 44.4537 12.5498 43.7709 12.5498H38.346V17.7208H43.7709C44.4461 17.7208 45 18.2542 45 18.9209C45 19.5803 44.4537 20.1211 43.7709 20.1211H38.3308C38.2853 21.5287 38.088 22.84 37.3976 23.9364C36.4871 25.381 34.8558 26.2997 31.8968 26.2997H30.827V49.5841C30.827 53.4661 29.5903 55.5849 27.648 56.7554C25.7967 57.8741 23.4294 58 20.9256 57.9926L9.90895 58C7.40516 58 5.03794 57.8741 3.18665 56.7554C1.24431 55.5849 0.00758725 53.4661 0.00758725 49.5841L0 49.5693ZM16.563 11.7793C16.9044 11.2088 17.6555 11.0236 18.2322 11.357C18.8164 11.6904 19.0061 12.4238 18.6646 12.9868L13.8392 20.9879H18.3005C18.9757 20.9879 19.5296 21.5213 19.5296 22.188C19.5296 22.4473 19.4461 22.6918 19.302 22.8844L13.4446 32.5968C13.1032 33.1672 12.352 33.3524 11.7754 33.019C11.1912 32.6857 11.0015 31.9522 11.3429 31.3892L16.1684 23.3882H11.7071C11.4947 23.3808 11.2822 23.3289 11.0926 23.2178C10.5083 22.8844 10.3187 22.151 10.6601 21.5879L16.5706 11.7867L16.563 11.7793ZM35.9029 11.4459V11.2385C35.8953 9.91238 35.8118 8.69 35.3187 7.90471C34.8483 7.15647 33.8543 6.68233 31.8968 6.68233H30.736C30.7967 7.21574 30.827 7.79359 30.827 8.41589V23.8919H31.8968C33.8543 23.8919 34.8407 23.4178 35.3187 22.6696C35.8498 21.8324 35.9105 20.5137 35.9029 19.0987C35.8574 17.417 35.6829 12.8757 35.9029 11.4533V11.4459ZM28.3763 8.40848C28.3763 5.50441 27.5948 4.00792 26.3657 3.26708C25.0379 2.46698 23.0577 2.37808 20.9256 2.37808L9.90895 2.38549C7.77694 2.37808 5.79666 2.46698 4.46889 3.26708C3.23976 4.00792 2.45827 5.50441 2.45827 8.40848V42.1165C2.45827 45.0206 3.23976 46.5171 4.46889 47.2579C5.79666 48.058 7.77694 48.1469 9.90895 48.1395L20.9256 48.1321C23.0577 48.1395 25.0379 48.0506 26.3657 47.2505C27.5948 46.5096 28.3763 45.0132 28.3763 42.1091V8.40107V8.40848Z" fill="#050f20"/>
</svg>
