<svg width="59" height="59" viewBox="0 0 59 59" fill="white" xmlns="http://www.w3.org/2000/svg">
<path d="M20.5323 13.1436C22.9508 13.1436 24.7524 13.8575 25.9535 15.2693C27.1546 16.681 27.7714 18.6606 27.7714 21.192V22.0195C27.7714 23.6746 27.4468 25.0539 26.7813 26.1898C26.1321 27.3256 25.1582 28.1207 23.8759 28.6238C25.1906 29.1106 26.1645 29.9219 26.8138 31.074C27.463 32.2261 27.7714 33.6216 27.7714 35.2604V37.7269C27.7714 40.2582 27.1708 42.2379 25.9535 43.6821C24.7524 45.11 22.9345 45.8402 20.5323 45.8402C18.1464 45.8402 16.3609 45.1262 15.1436 43.6821C13.9425 42.2541 13.342 40.2582 13.342 37.7269V35.5363H16.6856V37.9703C16.6856 39.4307 16.9939 40.5666 17.627 41.3779C18.26 42.1892 19.1851 42.5949 20.4512 42.5949C21.7334 42.5949 22.6748 42.1892 23.2916 41.3617C23.9084 40.5341 24.2168 39.3009 24.2168 37.662V35.1955C24.2168 33.6053 23.8759 32.437 23.2105 31.6744C22.545 30.9117 21.5387 30.5061 20.1915 30.4411H18.26V27.2283H20.37C21.5873 27.1634 22.545 26.7577 23.2105 26.0113C23.8759 25.2649 24.2168 24.1939 24.2168 22.8309V21.3705C24.2168 19.6991 23.9084 18.4334 23.2916 17.6221C22.6748 16.7946 21.7334 16.3889 20.4512 16.3889C19.2014 16.3889 18.26 16.7946 17.627 17.6059C16.9939 18.4172 16.6856 19.5693 16.6856 21.0622V22.7173H13.342V21.2569C13.342 18.7255 13.9425 16.7459 15.1436 15.3342C16.3447 13.9224 18.1464 13.2085 20.5323 13.2085V13.1436ZM0.0162311 21.7761C0.0162311 20.121 1.07125 18.7255 2.53205 18.2063C2.58074 14.2957 2.93783 10.6771 4.67455 7.83746C6.67098 4.59213 10.323 2.51513 17.0913 2.51513H18.2437C18.7631 1.05473 20.159 0 21.8146 0C23.9084 0 25.5964 1.68757 25.5964 3.7808C25.5964 5.87404 23.9084 7.56161 21.8146 7.56161C20.1752 7.56161 18.7794 6.50688 18.2437 5.04648H17.0913C11.3618 5.04648 8.37524 6.63669 6.83329 9.13559C5.40495 11.456 5.11279 14.6689 5.0641 18.19C6.5249 18.7093 7.57992 20.1048 7.57992 21.7599C7.57992 23.8531 5.89188 25.5407 3.79807 25.5407C1.70426 25.5407 0.0162311 23.8531 0.0162311 21.7599V21.7761ZM0.0162311 37.2239C0.0162311 35.1306 1.70426 33.4431 3.79807 33.4431C5.89188 33.4431 7.57992 35.1306 7.57992 37.2239C7.57992 38.8628 6.5249 40.2582 5.0641 40.7937C5.11279 44.2987 5.40495 47.5278 6.81706 49.8482C8.34278 52.3471 11.3455 53.9373 17.0751 53.9373H18.2275C18.7469 52.4769 20.1428 51.4222 21.7984 51.4222C23.8922 51.4222 25.5802 53.1097 25.5802 55.203C25.5802 57.2962 23.8922 58.9838 21.7984 58.9838C20.159 58.9838 18.7631 57.929 18.2275 56.4686H17.0751C10.3067 56.4686 6.65475 54.4079 4.65832 51.1463C2.9216 48.3067 2.58074 44.6881 2.53205 40.7775C1.05502 40.2582 0 38.8628 0 37.2076L0.0162311 37.2239ZM51.4363 21.7761C51.4363 20.1372 52.4751 18.7417 53.9359 18.2063C53.8872 14.7013 53.5951 11.4722 52.1667 9.15181C50.641 6.65292 47.6382 5.06271 41.9087 5.06271H40.805C40.2856 6.5231 38.8897 7.57783 37.2341 7.57783C35.1403 7.57783 33.4523 5.89026 33.4523 3.79703C33.4523 1.7038 35.1403 0.0162266 37.2341 0.0162266C38.8735 0.0162266 40.2856 1.07096 40.805 2.53135H41.9087C48.677 2.53135 52.329 4.59213 54.3254 7.85369C56.0622 10.6933 56.403 14.3119 56.4679 18.2225C57.945 18.7417 59 20.1535 59 21.7924C59 23.8856 57.312 25.5732 55.2182 25.5732C53.1243 25.5732 51.4363 23.8856 51.4363 21.7924V21.7761ZM51.4363 37.2239C51.4363 35.1306 53.1243 33.4431 55.2182 33.4431C57.312 33.4431 59 35.1306 59 37.2239C59 38.8628 57.945 40.2745 56.4842 40.7937C56.4355 44.7043 56.0784 48.3229 54.3417 51.1625C52.3453 54.4079 48.6933 56.4849 41.9249 56.4849H40.8212C40.3018 57.9453 38.9059 59 37.2503 59C35.1565 59 33.4685 57.3124 33.4685 55.2192C33.4685 53.126 35.1565 51.4384 37.2503 51.4384C38.8897 51.4384 40.3018 52.4931 40.8212 53.9535H41.9249C47.6545 53.9535 50.641 52.3633 52.1829 49.8644C53.6113 47.544 53.9034 44.3311 53.9521 40.81C52.4913 40.2907 51.4363 38.8952 51.4363 37.2401V37.2239ZM38.4514 13.1598C40.8699 13.1598 42.6715 13.8738 43.8726 15.3179C45.0737 16.7459 45.6743 18.7417 45.6743 21.2731C45.6743 22.8958 45.3984 24.3724 44.8465 25.7192C44.2946 27.066 43.6292 28.2505 42.8338 29.2891C42.0385 30.3276 40.9835 31.5608 39.6688 33.0049C38.5326 34.2869 37.6561 35.3254 37.0069 36.1205C36.3576 36.9156 35.8382 37.7918 35.4 38.7492C34.978 39.7065 34.7508 40.7288 34.7508 41.7998V42.3028H45.2847V45.5481H31.2286V42.8058C31.2286 41.1183 31.4883 39.6254 32.0077 38.2948C32.5271 36.9642 33.1601 35.8122 33.923 34.8061C34.6858 33.8163 35.6922 32.648 36.942 31.3012C38.0781 30.0842 38.9871 29.0294 39.6688 28.137C40.3505 27.2445 40.9348 26.2384 41.3893 25.1188C41.8437 23.9829 42.071 22.7497 42.071 21.4191C42.071 19.7316 41.7788 18.4821 41.1783 17.6383C40.5777 16.7946 39.6363 16.3727 38.3216 16.3727C37.0718 16.3727 36.1304 16.7946 35.4974 17.6383C34.8644 18.4821 34.556 19.6342 34.556 21.0946V23.9343H31.2124V21.3218C31.2124 18.7904 31.8129 16.7946 32.9978 15.3504C34.1827 13.9062 35.9843 13.176 38.4028 13.176L38.4514 13.1598Z" fill="#ffffff"/>
</svg>
