<svg width="48" height="64" viewBox="0 0 48 64" fill="none" xmlns="http://www.w3.org/2000/svg">
<path d="M34.8295 20.4177C34.8295 21.2663 34.1397 21.9555 33.2904 21.9555C32.4411 21.9555 31.7513 21.2663 31.7513 20.4177V9.80375C31.7513 6.55032 30.9062 4.87807 29.5784 4.05954C28.1335 3.16961 25.9419 3.06923 23.5805 3.0713L11.2501 3.07751C8.88864 3.06923 6.69703 3.16961 5.25219 4.05954C3.92335 4.87807 3.07923 6.55032 3.07923 9.80375V48.3999C3.07923 51.6534 3.92438 53.3246 5.25219 54.1431C6.69807 55.0341 8.88864 55.1355 11.2501 55.1324L13.4759 55.1262C14.3252 55.1262 15.015 55.8153 15.015 56.6639C15.015 57.5124 14.3252 58.2016 13.4759 58.2016H11.2501C8.41841 58.1995 5.7483 58.0505 3.64059 56.7508C1.41481 55.3787 0 52.9127 0 48.3989V9.80271C0 5.28889 1.41481 2.82191 3.64059 1.44976C5.74934 0.150047 8.42049 0.00206961 11.2501 0.00620883L23.5805 0C26.4111 0.00206961 29.0802 0.149012 31.19 1.44976C33.4158 2.82191 34.8306 5.28889 34.8306 9.80271V20.4167L34.8295 20.4177ZM22.1149 24.4825C22.146 24.4556 22.1781 24.4318 22.2071 24.41C24.2495 22.8909 27.0481 23.2086 28.5375 25.1416C29.4841 24.2445 30.6141 23.934 32.0652 24.0561C33.1869 24.1503 34.2754 24.5911 35.0408 25.4055C35.4437 25.0589 35.8104 24.7132 36.3904 24.5249C38.9238 23.7033 41.3329 25.0723 42.0206 27.6386L46.0848 42.7944C46.3096 43.6284 46.5385 44.4635 46.7529 45.3017C47.3215 47.5286 47.2718 49.9097 47.3774 52.1925C47.4323 53.3639 48.0133 54.8871 47.9988 55.8071C47.9895 56.3969 47.8994 56.9567 47.2614 57.2413L25.9461 62.9503C24.9611 63.2442 24.523 62.2063 24.321 61.4426C24.1646 60.8507 24.003 60.2598 23.8446 59.6669C23.597 58.748 23.5784 58.0485 22.5976 57.738C21.7296 57.4607 20.8513 57.2889 19.9979 56.9505C19.2221 56.6432 18.2465 56.0099 17.6188 55.4563C16.2713 54.2693 15.131 52.593 13.9565 51.2177C13.3578 50.514 12.6825 49.829 12.1367 49.086C11.8705 48.7238 11.5619 48.3834 11.275 48.0357C10.1367 46.6563 9.94197 45.1372 10.3262 43.4298C10.4443 42.9051 10.7933 42.3318 11.0305 41.8434C11.5805 40.7196 11.8436 40.1939 11.4707 38.9056C11.0409 37.4134 11.0253 36.2606 11.9285 34.964C12.3335 34.3814 12.6639 34.0617 13.2646 33.6726C13.8933 33.2659 14.2889 33.2276 14.7964 33.1231C14.4008 31.2967 13.7866 29.4785 13.304 27.6779C12.7592 25.6477 12.2164 23.6184 11.6727 21.5871C11.2263 19.9231 10.2268 17.1416 10.291 15.4962C10.3904 12.9941 12.7602 10.9027 15.2522 11.0693C18.3055 11.2742 19.2345 13.5177 19.9295 16.1109C20.5396 18.3844 21.2874 22.1697 22.1149 24.4814V24.4825ZM26.8275 59.6607L44.7487 54.8168C44.7073 54.646 44.6617 54.4701 44.6338 54.2952C44.4328 53.0369 44.2837 51.7941 44.3137 50.5182C44.35 49.0063 44.1656 47.1282 43.7741 45.668L39.1154 28.303C38.8575 27.3406 37.801 26.876 37.0066 27.562C36.1335 28.3133 37.4095 30.6975 35.2231 30.8062C33.3422 30.9003 33.8114 28.1829 32.7539 27.3675C31.9761 26.7684 30.7488 26.9826 30.2464 27.8414C29.9005 28.4334 30.0621 28.6952 30.1035 29.3699C30.1739 30.534 29.1082 31.3546 28.0103 30.8931C26.7809 30.3788 27.0098 27.8073 26.0693 26.9143C25.3909 26.2685 24.1315 26.4393 23.5815 27.1864C22.8358 28.2026 23.5535 29.6606 23.8456 30.7493C24.0175 31.3898 24.5292 32.7402 24.3987 33.3435C24.1522 34.4797 22.6007 34.9992 21.8104 34.073C21.336 33.5163 20.5986 30.1563 20.3511 29.2343C19.5069 26.0926 18.667 22.951 17.8249 19.8082C17.4044 18.2416 17.0191 16.6645 16.5572 15.1082C16.2454 14.0537 15.0388 13.9202 14.1429 14.2948C12.9984 14.7718 13.3288 16.1161 13.5815 17.0608L20.5427 43.0179C20.8016 43.9834 21.0502 45.0772 19.8643 45.547C18.5644 46.0613 17.9875 45.102 17.6965 44.0165L15.5484 35.9947C15.4479 36.0205 15.3412 36.0495 15.2594 36.063C14.7923 36.1416 14.4567 36.4034 14.29 36.8474C13.9844 37.6628 14.9445 39.454 14.5831 40.9203C14.2693 42.1932 13.5805 43.0893 13.2812 44.1717C12.8741 45.6484 13.5867 46.0778 14.4381 47.1354C15.2066 48.0936 16.0165 49.0167 16.7913 49.9677C18.1336 51.6171 19.6333 53.7985 21.7876 54.3946C22.959 54.7195 24.3821 54.9844 25.2677 55.8733C26.8109 57.4224 26.3334 58.2151 26.8275 59.6617V59.6607Z" fill="#050f20"/>
</svg>
