<svg width="44" height="46" viewBox="0 0 44 46" fill="none" xmlns="http://www.w3.org/2000/svg">
<path d="M12.0052 9.73683H14.2454C14.9347 9.73683 15.5091 10.0336 15.9687 10.4491C16.4282 10.9239 16.658 11.5176 16.658 12.2298V14.5446C16.658 15.2568 16.3708 15.8505 15.9687 16.3253C15.5091 16.8002 14.9347 17.0375 14.2454 17.0375H12.0052C11.3159 17.0375 10.7415 16.5254 10.282 16.1099C9.82245 15.6351 9.59269 15.0414 9.59269 14.3291V12.0144C9.59269 11.3021 9.87989 10.7085 10.282 10.2336C10.7415 9.7588 11.3159 9.73683 12.0052 9.73683ZM8.78851 0H35.2115C37.624 0 39.8068 1.0091 41.4152 2.67104C43.0235 4.33298 44 6.58838 44 9.08128V36.9187C44 39.4116 43.0235 41.6672 41.4152 43.3291C39.8068 44.9911 37.624 46 35.2115 46H8.78851C6.37597 46 4.19321 44.9911 2.58485 43.3291C0.976495 41.6672 0 39.4116 0 36.9187V9.08128C0 6.58838 0.976495 4.33298 2.58485 2.67104C4.19321 1.0091 6.37597 0 8.78851 0ZM35.2115 2.78968H8.78851C7.12271 2.78968 5.5718 3.50193 4.48041 4.62967C3.38903 5.75741 2.69974 7.35999 2.69974 9.08128V36.9187C2.69974 38.64 3.38903 40.2426 4.48041 41.3703C5.5718 42.4981 7.12271 43.2103 8.78851 43.2103H35.2115C36.8773 43.2103 38.4282 42.4981 39.5196 41.3703C40.611 40.2426 41.3003 38.64 41.3003 36.9187V9.08128C41.3003 7.35999 40.611 5.75741 39.5196 4.62967C38.4282 3.50193 36.8773 2.78968 35.2115 2.78968ZM26.9399 5C27.2846 5 27.6292 5.29675 27.6292 5.71223C27.6292 6.06836 27.342 6.42446 26.9399 6.42446C26.5953 6.42446 26.2507 6.12771 26.2507 5.71223C26.2507 5.3561 26.5379 5 26.9399 5ZM22 5C22.3447 5 22.6893 5.29675 22.6893 5.71223C22.6893 6.06836 22.4021 6.42446 22 6.42446C21.6554 6.42446 21.3107 6.12771 21.3107 5.71223C21.3107 5.3561 21.5979 5 22 5ZM17.0601 5C17.4047 5 17.7493 5.29675 17.7493 5.71223C17.7493 6.06836 17.4621 6.42446 17.0601 6.42446C16.7154 6.42446 16.3708 6.12771 16.3708 5.71223C16.3708 5.3561 16.658 5 17.0601 5ZM29.812 29.6182H32.0522C32.7415 29.6182 33.3159 29.9149 33.7755 30.3304C34.235 30.8053 34.4647 31.3987 34.4647 32.111V34.4259C34.4647 35.1382 34.1775 35.7316 33.7755 36.2065C33.3159 36.6813 32.7415 36.9187 32.0522 36.9187H29.812C29.1227 36.9187 28.5483 36.622 28.0888 36.2065C27.6292 35.7316 27.3995 35.1382 27.3995 34.4259V32.111C27.3995 31.3987 27.6867 30.8053 28.0888 30.3304C28.5483 29.8556 29.1227 29.6182 29.812 29.6182ZM32.0522 31.4582H29.812C29.6397 31.4582 29.4674 31.5175 29.3525 31.6362C29.2376 31.7549 29.1802 31.9329 29.1802 32.111V34.4259C29.1802 34.604 29.2376 34.782 29.3525 34.9007C29.4674 35.0194 29.6397 35.0787 29.812 35.0787H32.0522C32.2246 35.0787 32.3969 35.0194 32.5117 34.9007C32.6266 34.782 32.6841 34.604 32.6841 34.4259V32.111C32.6841 31.9329 32.6266 31.7549 32.5117 31.6362C32.3969 31.5175 32.2246 31.4582 32.0522 31.4582ZM29.812 19.6182H32.0522C32.7415 19.6182 33.3159 19.9151 33.7755 20.3306C34.235 20.8054 34.4647 21.3989 34.4647 22.1112V24.4259C34.4647 25.1382 34.1775 25.7318 33.7755 26.2067C33.3159 26.6815 32.7415 26.9189 32.0522 26.9189H29.812C29.1227 26.9189 28.5483 26.6222 28.0888 26.2067C27.6292 25.7318 27.3995 25.1382 27.3995 24.4259V22.1112C27.3995 21.3989 27.6867 20.8054 28.0888 20.3306C28.5483 19.8558 29.1227 19.6182 29.812 19.6182ZM32.0522 21.4582H29.812C29.6397 21.4582 29.4674 21.5177 29.3525 21.6364C29.2376 21.7551 29.1802 21.9331 29.1802 22.1112V24.4259C29.1802 24.604 29.2376 24.7821 29.3525 24.9009C29.4674 25.0196 29.6397 25.0789 29.812 25.0789H32.0522C32.2246 25.0789 32.3969 25.0196 32.5117 24.9009C32.6266 24.7821 32.6841 24.604 32.6841 24.4259V22.1112C32.6841 21.9331 32.6266 21.7551 32.5117 21.6364C32.3969 21.5177 32.2246 21.4582 32.0522 21.4582ZM20.9086 29.5588H23.1488C23.8381 29.5588 24.4125 29.8555 24.8721 30.271C25.3316 30.7458 25.5614 31.3393 25.5614 32.0516V34.3665C25.5614 35.0788 25.2742 35.6722 24.8721 36.1471C24.4125 36.6219 23.8381 36.8595 23.1488 36.8595H20.9086C20.2193 36.8595 19.6449 36.5626 19.1854 36.1471C18.7258 35.6722 18.4961 35.0788 18.4961 34.3665V32.0516C18.4961 31.3393 18.7833 30.7458 19.1854 30.271C19.6449 29.7962 20.2193 29.5588 20.9086 29.5588ZM23.1488 31.3988H20.9086C20.7363 31.3988 20.564 31.4581 20.4491 31.5768C20.3342 31.6955 20.2768 31.8735 20.2768 32.0516V34.3665C20.2768 34.5446 20.3342 34.7225 20.4491 34.8413C20.564 34.96 20.7363 35.0193 20.9086 35.0193H23.1488C23.3211 35.0193 23.4935 34.96 23.6084 34.8413C23.7232 34.7225 23.7807 34.5446 23.7807 34.3665V32.0516C23.7807 31.8735 23.7232 31.6955 23.6084 31.5768C23.4935 31.4581 23.3211 31.3988 23.1488 31.3988ZM20.9086 19.559H23.1488C23.8381 19.559 24.4125 19.8557 24.8721 20.2712C25.3316 20.746 25.5614 21.3395 25.5614 22.0518V24.3667C25.5614 25.0789 25.2742 25.6724 24.8721 26.1473C24.4125 26.6221 23.8381 26.8595 23.1488 26.8595H20.9086C20.2193 26.8595 19.6449 26.5627 19.1854 26.1473C18.7258 25.6724 18.4961 25.0789 18.4961 24.3667V22.0518C18.4961 21.3395 18.7833 20.746 19.1854 20.2712C19.6449 19.7963 20.2193 19.559 20.9086 19.559ZM23.1488 21.3989H20.9086C20.7363 21.3989 20.564 21.4583 20.4491 21.577C20.3342 21.6957 20.2768 21.8737 20.2768 22.0518V24.3667C20.2768 24.5447 20.3342 24.7227 20.4491 24.8414C20.564 24.9602 20.7363 25.0195 20.9086 25.0195H23.1488C23.3211 25.0195 23.4935 24.9602 23.6084 24.8414C23.7232 24.7227 23.7807 24.5447 23.7807 24.3667V22.0518C23.7807 21.8737 23.7232 21.6957 23.6084 21.577C23.4935 21.4583 23.3211 21.3989 23.1488 21.3989ZM12.0052 29.4994H14.2454C14.9347 29.4994 15.5091 29.7961 15.9687 30.2116C16.4282 30.6864 16.658 31.2801 16.658 31.9923V34.3071C16.658 35.0193 16.3708 35.613 15.9687 36.0878C15.5091 36.5627 14.9347 36.8001 14.2454 36.8001H12.0052C11.3159 36.8001 10.7415 36.5033 10.282 36.0878C9.82245 35.613 9.59269 35.0193 9.59269 34.3071V31.9923C9.59269 31.2801 9.87989 30.6864 10.282 30.2116L10.3394 30.1524C10.799 29.7369 11.3734 29.4994 12.0052 29.4994ZM14.2454 31.3393H12.0052C11.8329 31.3393 11.718 31.3987 11.6031 31.5174L11.5457 31.5768C11.4308 31.6955 11.3734 31.8735 11.3734 32.0516V34.3665C11.3734 34.5446 11.4308 34.7225 11.5457 34.8413C11.6606 34.96 11.8329 35.0193 12.0052 35.0193H14.2454C14.4178 35.0193 14.5901 34.96 14.705 34.8413C14.8198 34.7225 14.8773 34.5446 14.8773 34.3665V32.0516C14.8773 31.8735 14.8198 31.6955 14.705 31.5768C14.5901 31.4581 14.4178 31.3988 14.2454 31.3988V31.3393ZM12.0052 19.4995H14.2454C14.9347 19.4995 15.5091 19.7963 15.9687 20.2118C16.4282 20.6866 16.658 21.2803 16.658 21.9925V24.3073C16.658 25.0195 16.3708 25.6132 15.9687 26.088C15.5091 26.5629 14.9347 26.8003 14.2454 26.8003H12.0052C11.3159 26.8003 10.7415 26.5035 10.282 26.088C9.82245 25.6132 9.59269 25.0195 9.59269 24.3073V21.9925C9.59269 21.2803 9.87989 20.6866 10.282 20.2118C10.7415 19.7369 11.3159 19.4995 12.0052 19.4995ZM14.2454 21.3395H12.0052C11.8329 21.3395 11.6606 21.3989 11.5457 21.5176C11.4308 21.6363 11.3734 21.8145 11.3734 21.9925V24.3073C11.3734 24.4853 11.4308 24.6635 11.5457 24.7822C11.6606 24.9009 11.8329 24.9603 12.0052 24.9603H14.2454C14.4178 24.9603 14.5901 24.9009 14.705 24.7822C14.8198 24.6635 14.8773 24.4853 14.8773 24.3073V21.9925C14.8773 21.8145 14.8198 21.6363 14.705 21.5176C14.5901 21.3989 14.4178 21.3395 14.2454 21.3395ZM29.812 9.61819H32.0522C32.7415 9.61819 33.3159 9.91493 33.7755 10.3304C34.235 10.8053 34.4647 11.3987 34.4647 12.111V14.4259C34.4647 15.1382 34.1775 15.7316 33.7755 16.2065C33.3159 16.6813 32.7415 16.9187 32.0522 16.9187H29.812C29.1227 16.9187 28.5483 16.622 28.0888 16.2065C27.6292 15.7316 27.3995 15.1382 27.3995 14.4259V12.111C27.3995 11.3987 27.6867 10.8053 28.0888 10.3304C28.5483 9.85558 29.1227 9.61819 29.812 9.61819ZM32.0522 11.4582H29.812C29.6397 11.4582 29.4674 11.5175 29.3525 11.6362C29.2376 11.7549 29.1802 11.9329 29.1802 12.111V14.4259C29.1802 14.604 29.2376 14.782 29.3525 14.9007C29.4674 15.0194 29.6397 15.0787 29.812 15.0787H32.0522C32.2246 15.0787 32.3969 15.0194 32.5117 14.9007C32.6266 14.782 32.6841 14.604 32.6841 14.4259V12.111C32.6841 11.9329 32.6266 11.7549 32.5117 11.6362C32.3969 11.5175 32.2246 11.4582 32.0522 11.4582ZM20.9086 9.61819H23.1488C23.8381 9.61819 24.4125 9.91493 24.8721 10.3304C25.3316 10.8053 25.5614 11.3987 25.5614 12.111V14.4259C25.5614 15.1382 25.2742 15.7316 24.8721 16.2065C24.4125 16.6813 23.8381 16.9187 23.1488 16.9187H20.9086C20.2193 16.9187 19.6449 16.622 19.1854 16.2065C18.7258 15.7316 18.4961 15.1382 18.4961 14.4259V12.111C18.4961 11.3987 18.7833 10.8053 19.1854 10.3304C19.6449 9.85558 20.2193 9.61819 20.9086 9.61819ZM23.1488 11.4582H20.9086C20.7363 11.4582 20.564 11.5175 20.4491 11.6362C20.3342 11.7549 20.2768 11.9329 20.2768 12.111V14.4259C20.2768 14.604 20.3342 14.782 20.4491 14.9007C20.564 15.0194 20.7363 15.0787 20.9086 15.0787H23.1488C23.3211 15.0787 23.4935 15.0194 23.6084 14.9007C23.7232 14.782 23.7807 14.604 23.7807 14.4259V12.111C23.7807 11.9329 23.7232 11.7549 23.6084 11.6362C23.4935 11.5175 23.3211 11.4582 23.1488 11.4582ZM14.2454 11.4582H12.0052C11.8329 11.4582 11.6606 11.5175 11.5457 11.6362C11.4308 11.7549 11.3734 11.9329 11.3734 12.111V14.4259C11.3734 14.604 11.4308 14.782 11.5457 14.9007C11.6606 15.0194 11.8329 15.0787 12.0052 15.0787H14.2454C14.4178 15.0787 14.5901 15.0194 14.705 14.9007C14.8198 14.782 14.8773 14.604 14.8773 14.4259V12.111C14.8773 11.9329 14.8198 11.7549 14.705 11.6362C14.5901 11.5175 14.4178 11.4582 14.2454 11.4582Z" fill="#050f20"/>
</svg>
